<?xml version="1.0" encoding="iso-8859-1"?>
<!-- Generator: Adobe Illustrator 16.0.0, SVG Export Plug-In . SVG Version: 6.00 Build 0)  -->
<!DOCTYPE svg PUBLIC "-//W3C//DTD SVG 1.1//EN" "http://www.w3.org/Graphics/SVG/1.1/DTD/svg11.dtd">
<svg version="1.1" id="Layer_1" xmlns="http://www.w3.org/2000/svg" xmlns:xlink="http://www.w3.org/1999/xlink" x="0px" y="0px"
	 width="656.222px" height="222.242px" viewBox="76.351 -23.901 656.222 222.242"
	 style="enable-background:new 76.351 -23.901 656.222 222.242;" xml:space="preserve">
<g>
	<path d="M76.351,0.496c0-0.677,0.206-1.259,0.62-1.747c0.413-0.488,1.033-0.732,1.859-0.732h16.565
		c0.563,0,1.164,0.225,1.803,0.676c0.639,0.451,0.958,1.053,0.958,1.804v78.712c0,1.651-0.921,2.479-2.761,2.479H78.83
		c-1.653,0-2.479-0.826-2.479-2.478V0.496z"/>
	<path d="M115.509,0.496c0-1.652,0.826-2.479,2.479-2.479h11.043c1.652,0,2.479,0.827,2.479,2.479v21.805
		c0,1.653-0.827,2.479-2.479,2.479h-11.043c-1.653,0-2.479-0.825-2.479-2.479V0.496z"/>
	<path d="M155.399,0.496c0.075-0.677,0.338-1.259,0.789-1.747c0.451-0.488,1.089-0.732,1.916-0.732H177.6
		c1.389,0,2.291,0.714,2.705,2.141l15.325,51.16l15.438-51.16c0.526-1.427,1.483-2.141,2.874-2.141h19.27
		c0.676,0,1.286,0.235,1.832,0.704c0.544,0.47,0.854,1.062,0.93,1.775c1.314,13.222,2.657,26.34,4.028,39.355
		c1.371,13.015,2.713,26.134,4.028,39.356v0.28c0,1.466-0.827,2.197-2.479,2.197h-15.945c-1.728,0-2.629-0.826-2.704-2.479
		L218,35.653l-12.678,43.835c-0.076,0.376-0.348,0.826-0.817,1.353c-0.47,0.526-0.93,0.789-1.38,0.789h-14.818
		c-0.451,0-0.93-0.254-1.437-0.761c-0.507-0.508-0.78-0.967-0.817-1.381l-12.68-43.721l-4.902,43.442
		c-0.076,1.651-0.996,2.479-2.761,2.479h-15.945c-1.615,0-2.422-0.826-2.422-2.479L155.399,0.496z"/>
	<path d="M304.934-21.648c0-1.389,0.731-2.141,2.192-2.253h16.578c2.023,0,3.035,0.978,3.035,2.93v77.19
		c0,3.719-0.741,7.202-2.221,10.452c-1.479,3.248-3.475,6.085-5.984,8.508c-2.511,2.422-5.424,4.328-8.74,5.719
		c-3.315,1.39-6.814,2.084-10.495,2.084c-2.179,0-4.32-0.244-6.423-0.731c-2.104-0.488-4.104-1.211-6-2.168
		c-1.896-0.959-3.662-2.143-5.296-3.552c-1.634-1.407-3.071-3.032-4.31-4.872c-0.113-0.038-0.169-0.339-0.169-0.902
		c0-0.978,0.301-1.689,0.901-2.142l9.804-9.184c0.3-0.263,0.62-0.479,0.958-0.647c0.338-0.17,0.657-0.255,0.958-0.255
		c0.563,0,1.099,0.207,1.606,0.621c0.507,0.413,1.07,0.873,1.69,1.38c0.62,0.508,1.342,0.967,2.169,1.381
		c0.826,0.412,1.822,0.619,2.986,0.619c0.864,0,1.709-0.169,2.536-0.507c0.826-0.338,1.549-0.789,2.169-1.353
		c0.62-0.563,1.117-1.229,1.493-2c0.375-0.771,0.563-1.587,0.563-2.451V-21.648z"/>
	<path d="M366.685,48.318c0,2.782,0.385,5.143,1.157,7.077c0.771,1.938,1.788,3.517,3.049,4.737c1.26,1.223,2.729,2.115,4.403,2.679
		c1.675,0.564,3.416,0.847,5.223,0.847c1.882,0,3.661-0.328,5.335-0.986c1.675-0.657,3.144-1.637,4.404-2.934
		s2.258-2.903,2.991-4.82c0.734-1.917,1.103-4.117,1.103-6.6V0.498c0-0.677,0.233-1.26,0.704-1.748
		c0.469-0.488,1.099-0.733,1.888-0.733h16.452c0.863,0,1.539,0.253,2.029,0.76c0.486,0.507,0.732,1.081,0.732,1.72v47.498
		c0,6.573-0.969,12.095-2.902,16.563c-1.936,4.471-4.535,8.067-7.803,10.79c-3.269,2.724-7.054,4.677-11.354,5.86
		c-4.302,1.183-8.818,1.773-13.552,1.773c-4.732,0-9.26-0.609-13.578-1.831c-4.32-1.221-8.114-3.212-11.382-5.973
		s-5.869-6.367-7.803-10.818s-2.902-9.905-2.902-16.367V0.496c0-0.639,0.215-1.212,0.646-1.72c0.431-0.507,0.964-0.76,1.602-0.76
		h16.86c0.562,0,1.152,0.235,1.77,0.705c0.618,0.47,0.928,1.062,0.928,1.775V48.318L366.685,48.318z"/>
	<path d="M443.03,54.642c0.639,0.526,1.455,1.231,2.451,2.113c0.994,0.883,2.131,1.756,3.408,2.62
		c1.916,1.276,3.813,2.272,5.689,2.985c1.879,0.715,3.852,1.07,5.916,1.07c1.916,0,3.521-0.215,4.818-0.646
		c1.295-0.431,2.316-1.004,3.07-1.718c0.75-0.713,1.285-1.538,1.605-2.477c0.318-0.938,0.479-1.934,0.479-2.984
		c0-1.163-0.441-2.204-1.324-3.124c-0.883-0.919-1.963-1.735-3.238-2.449c-1.277-0.713-2.611-1.321-4.002-1.828
		c-1.389-0.508-2.592-0.93-3.605-1.268c-4.508-1.576-8.451-3.273-11.832-5.095c-3.381-1.82-6.197-3.847-8.451-6.08
		s-3.943-4.691-5.07-7.375c-1.127-2.683-1.689-5.677-1.689-8.979c0-3.489,0.703-6.661,2.111-9.514
		c1.41-2.853,3.418-5.292,6.029-7.319c2.609-2.025,5.756-3.593,9.438-4.699c3.682-1.107,7.793-1.661,12.34-1.661
		c3.418,0,6.693,0.386,9.83,1.155c3.137,0.771,6.227,2,9.27,3.69c1.275,0.751,2.488,1.531,3.633,2.338
		c1.146,0.81,2.15,1.587,3.016,2.338c0.865,0.752,1.551,1.465,2.057,2.142c0.508,0.676,0.762,1.259,0.762,1.747
		s-0.123,0.938-0.365,1.353c-0.246,0.414-0.611,0.883-1.1,1.408l-8.621,9.184c-0.639,0.64-1.275,0.958-1.914,0.958
		c-0.525,0-1.006-0.149-1.438-0.451c-0.434-0.3-0.912-0.676-1.438-1.127l-0.508-0.45c-0.752-0.639-1.586-1.297-2.506-1.973
		c-0.922-0.676-1.908-1.286-2.959-1.831c-1.053-0.544-2.16-0.995-3.324-1.353c-1.164-0.356-2.348-0.535-3.549-0.535
		c-1.24,0-2.404,0.104-3.494,0.31c-1.09,0.207-2.047,0.535-2.873,0.986c-0.828,0.451-1.484,1.042-1.973,1.775
		c-0.488,0.731-0.732,1.625-0.732,2.676c0,1.052,0.262,1.963,0.789,2.733c0.525,0.77,1.314,1.483,2.367,2.141
		c1.051,0.657,2.355,1.277,3.914,1.859c1.559,0.583,3.371,1.211,5.438,1.888c3.982,1.314,7.654,2.696,11.018,4.141
		c3.359,1.447,6.262,3.155,8.703,5.127c2.439,1.973,4.348,4.33,5.719,7.071c1.371,2.742,2.059,6.066,2.059,9.973
		c0,4.132-0.848,7.879-2.537,11.241s-4.01,6.227-6.957,8.592c-2.949,2.367-6.414,4.197-10.396,5.494
		c-3.98,1.295-8.264,1.943-12.846,1.943c-4.32,0-8.564-0.773-12.734-2.316c-4.168-1.544-8.057-3.616-11.662-6.216
		c-1.504-1.093-2.771-2.167-3.803-3.222c-1.035-1.056-1.852-1.901-2.451-2.542l-0.17-0.17c-0.037-0.075-0.076-0.122-0.113-0.143
		c-0.037-0.018-0.074-0.046-0.111-0.085c-0.037-0.075-0.076-0.122-0.111-0.141c-0.039-0.02-0.076-0.047-0.113-0.085
		c-0.865-0.941-1.297-1.695-1.297-2.26c0-0.642,0.432-1.356,1.297-2.148l9.748-9.296c0.787-0.563,1.426-0.845,1.914-0.845
		c0.338,0,0.695,0.111,1.07,0.338C442.051,53.854,442.502,54.192,443.03,54.642z"/>
	<path d="M501.85,0.489c0-0.748,0.254-1.348,0.762-1.797c0.506-0.449,1.135-0.674,1.887-0.674h60.627
		c0.676,0,1.275,0.206,1.803,0.618c0.525,0.412,0.826,1.03,0.9,1.854v13.988c0,0.674-0.234,1.321-0.703,1.938
		c-0.471,0.617-1.139,0.927-2,0.927h-19.439v61.694c0,0.677-0.244,1.286-0.729,1.832c-0.488,0.547-1.125,0.817-1.912,0.817h-16.521
		c-0.637,0-1.236-0.254-1.799-0.762c-0.563-0.507-0.842-1.137-0.842-1.889V17.343H504.5c-0.752,0-1.381-0.243-1.889-0.73
		c-0.508-0.486-0.76-1.198-0.76-2.136V0.489H501.85z"/>
	<path d="M581.688,0.496c0-0.677,0.205-1.259,0.619-1.747c0.412-0.488,1.033-0.732,1.859-0.732h16.564
		c0.563,0,1.164,0.225,1.803,0.676s0.957,1.053,0.957,1.804v78.712c0,1.651-0.92,2.479-2.76,2.479h-16.564
		c-1.654,0-2.48-0.826-2.48-2.479V0.496H581.688z"/>
	<path d="M621.86,0.496c0-0.677,0.205-1.259,0.619-1.747c0.412-0.488,1.033-0.732,1.859-0.732h18.424
		c0.525,0,1.07,0.132,1.635,0.395c0.563,0.263,1.051,0.714,1.465,1.353c4.771,7.7,9.502,15.288,14.199,22.763
		c4.693,7.476,9.445,15.063,14.254,22.764V0.157c0.15-0.676,0.451-1.201,0.902-1.577c0.449-0.375,0.975-0.563,1.576-0.563h16.059
		c0.789,0,1.445,0.216,1.973,0.648c0.525,0.432,0.789,1.042,0.789,1.831V79.49c0,0.752-0.227,1.307-0.678,1.662
		c-0.449,0.357-1.068,0.535-1.857,0.535h-17.975c-0.488,0-0.922-0.169-1.297-0.508c-0.375-0.338-0.77-0.788-1.182-1.352
		c-4.996-8.265-9.938-16.435-14.818-24.51c-4.885-8.076-9.842-16.246-14.875-24.51v48.4c0,0.825-0.188,1.444-0.563,1.858
		c-0.377,0.413-1.053,0.619-2.029,0.619h-16.002c-0.863,0-1.492-0.233-1.887-0.704c-0.395-0.47-0.592-1.042-0.592-1.719V0.496z"/>
	<path d="M712.571,65.461c0-0.752,0.207-1.354,0.621-1.804s1.035-0.677,1.865-0.677h14.916c0.641,0,1.234,0.227,1.779,0.677
		c0.547,0.45,0.82,1.052,0.82,1.804v13.635c0,0.676-0.217,1.277-0.65,1.803c-0.434,0.527-1.082,0.789-1.949,0.789h-14.916
		c-1.658,0-2.486-0.863-2.486-2.592V65.461z"/>
</g>
<g>
	<g>
		<path d="M76.352,112.606c0-0.258,0.078-0.479,0.236-0.667c0.157-0.186,0.396-0.279,0.711-0.279h6.334
			c0.215,0,0.445,0.084,0.689,0.258c0.245,0.172,0.366,0.401,0.366,0.688v30.098c0,0.633-0.352,0.949-1.055,0.949h-6.334
			c-0.632,0-0.948-0.316-0.948-0.949L76.352,112.606L76.352,112.606z"/>
		<path d="M109.164,133.312c0.245,0.199,0.556,0.47,0.938,0.806c0.379,0.337,0.814,0.671,1.302,1.003
			c0.732,0.489,1.458,0.869,2.176,1.143c0.717,0.271,1.471,0.408,2.263,0.408c0.732,0,1.346-0.082,1.841-0.246
			c0.496-0.165,0.886-0.385,1.175-0.657c0.287-0.271,0.492-0.589,0.613-0.946c0.122-0.361,0.184-0.74,0.184-1.143
			c0-0.443-0.169-0.842-0.506-1.195c-0.337-0.35-0.751-0.662-1.239-0.934c-0.488-0.273-0.998-0.507-1.53-0.701
			c-0.53-0.193-0.99-0.355-1.379-0.486c-1.723-0.6-3.231-1.251-4.524-1.947c-1.292-0.697-2.369-1.472-3.231-2.324
			c-0.863-0.854-1.508-1.795-1.939-2.819c-0.432-1.027-0.647-2.171-0.647-3.435c0-1.334,0.269-2.547,0.808-3.637
			c0.538-1.091,1.307-2.025,2.305-2.8s2.201-1.374,3.61-1.796c1.407-0.423,2.98-0.637,4.718-0.637c1.307,0,2.561,0.146,3.761,0.441
			c1.199,0.295,2.381,0.764,3.543,1.412c0.488,0.287,0.951,0.585,1.39,0.895c0.437,0.309,0.821,0.604,1.152,0.893
			c0.331,0.289,0.592,0.563,0.787,0.82c0.193,0.259,0.291,0.482,0.291,0.668s-0.047,0.359-0.141,0.518s-0.232,0.336-0.42,0.539
			l-3.296,3.508c-0.245,0.246-0.489,0.369-0.733,0.369c-0.202,0-0.386-0.06-0.55-0.174c-0.166-0.114-0.348-0.258-0.549-0.431
			l-0.193-0.173c-0.287-0.244-0.607-0.494-0.959-0.755c-0.353-0.258-0.729-0.491-1.132-0.698c-0.402-0.209-0.827-0.381-1.271-0.519
			c-0.445-0.137-0.898-0.204-1.358-0.204c-0.472,0-0.919,0.039-1.335,0.119c-0.417,0.08-0.783,0.204-1.099,0.377
			c-0.316,0.174-0.567,0.399-0.753,0.68c-0.186,0.281-0.28,0.62-0.28,1.021c0,0.402,0.101,0.75,0.3,1.045
			c0.202,0.295,0.503,0.566,0.906,0.82c0.401,0.25,0.9,0.486,1.497,0.711c0.595,0.221,1.288,0.461,2.079,0.719
			c1.521,0.504,2.926,1.032,4.211,1.585s2.394,1.205,3.328,1.96c0.934,0.753,1.663,1.654,2.186,2.704
			c0.525,1.05,0.786,2.319,0.786,3.812c0,1.582-0.322,3.014-0.969,4.3c-0.647,1.285-1.533,2.38-2.661,3.286
			c-1.129,0.904-2.454,1.604-3.975,2.102c-1.524,0.493-3.161,0.742-4.913,0.742c-1.65,0-3.274-0.297-4.869-0.885
			c-1.594-0.59-3.082-1.383-4.459-2.377c-0.574-0.418-1.06-0.83-1.456-1.231c-0.395-0.403-0.707-0.728-0.938-0.972l-0.064-0.064
			c-0.015-0.029-0.028-0.049-0.042-0.057c-0.016-0.005-0.029-0.018-0.043-0.03c-0.016-0.029-0.029-0.046-0.044-0.054
			s-0.029-0.019-0.044-0.031c-0.331-0.361-0.494-0.649-0.494-0.863c0-0.246,0.163-0.519,0.494-0.822l3.727-3.557
			c0.302-0.216,0.546-0.323,0.732-0.323c0.129,0,0.266,0.044,0.409,0.13C108.79,133.01,108.961,133.14,109.164,133.312z"/>
		<path d="M133.486,112.606c0.015-0.242,0.104-0.462,0.27-0.656c0.164-0.192,0.384-0.29,0.656-0.29h6.398
			c0.217,0,0.438,0.091,0.668,0.271s0.346,0.406,0.346,0.679v10.231h10.707V112.61c0-0.259,0.09-0.482,0.269-0.669
			c0.179-0.188,0.412-0.281,0.697-0.281h6.298c0.287,0,0.537,0.074,0.752,0.215c0.214,0.144,0.324,0.375,0.324,0.692v30.14
			c0,0.316-0.095,0.555-0.281,0.711c-0.187,0.158-0.43,0.236-0.73,0.236h-6.362c-0.286,0-0.519-0.078-0.697-0.236
			c-0.179-0.156-0.269-0.395-0.269-0.711v-12.238h-10.707v12.238c0,0.301-0.098,0.535-0.291,0.701
			c-0.195,0.166-0.455,0.248-0.786,0.248h-6.334c-0.604,0-0.913-0.28-0.928-0.84V112.606z"/>
		<path d="M166.427,127.69c0-1.524,0.195-2.985,0.582-4.386c0.389-1.402,0.942-2.717,1.66-3.943c0.718-1.228,1.577-2.344,2.577-3.35
			c0.999-1.005,2.109-1.864,3.331-2.575c1.221-0.71,2.532-1.263,3.934-1.657c1.402-0.396,2.864-0.594,4.387-0.594
			c1.509,0,2.968,0.196,4.376,0.594c1.408,0.395,2.724,0.947,3.945,1.657c1.221,0.711,2.337,1.571,3.342,2.575
			c1.007,1.004,1.865,2.121,2.577,3.35c0.711,1.227,1.265,2.541,1.659,3.943c0.396,1.4,0.594,2.861,0.594,4.386
			c0,1.521-0.196,2.982-0.594,4.384c-0.395,1.4-0.948,2.707-1.659,3.921c-0.712,1.215-1.572,2.319-2.577,3.317
			c-1.005,1.001-2.119,1.857-3.342,2.574c-1.221,0.719-2.537,1.272-3.945,1.658c-1.408,0.391-2.868,0.582-4.376,0.582
			c-1.523,0-2.986-0.191-4.387-0.582c-1.402-0.387-2.713-0.939-3.934-1.658c-1.222-0.717-2.332-1.574-3.331-2.574
			c-1-0.998-1.859-2.104-2.577-3.317c-0.718-1.214-1.272-2.52-1.66-3.921C166.622,130.671,166.427,129.21,166.427,127.69z
			 M174.766,127.667c0,1.192,0.201,2.307,0.603,3.341c0.401,1.032,0.964,1.935,1.688,2.702c0.724,0.77,1.581,1.373,2.572,1.811
			c0.988,0.438,2.079,0.656,3.27,0.656c1.192,0,2.286-0.219,3.282-0.656c0.997-0.438,1.856-1.041,2.582-1.811
			c0.725-0.768,1.286-1.67,1.688-2.702c0.402-1.034,0.603-2.148,0.603-3.341c0-1.178-0.201-2.289-0.603-3.33
			c-0.402-1.04-0.963-1.949-1.688-2.725c-0.726-0.776-1.585-1.388-2.582-1.83c-0.997-0.445-2.092-0.67-3.282-0.67
			c-1.19,0-2.281,0.225-3.27,0.67c-0.991,0.441-1.848,1.054-2.572,1.83c-0.726,0.774-1.287,1.685-1.688,2.725
			C174.966,125.378,174.766,126.49,174.766,127.667z"/>
		<path d="M211.326,143.2c-0.144-0.242-0.281-0.496-0.409-0.754c-0.127-0.258-0.245-0.516-0.344-0.773
			c-1.853-4.884-3.699-9.726-5.536-14.523c-1.84-4.796-3.686-9.637-5.538-14.52c0-0.072-0.01-0.137-0.032-0.192
			c-0.022-0.059-0.03-0.116-0.03-0.173c0-0.401,0.265-0.604,0.797-0.604h6.937c0.546,0,0.919,0.272,1.119,0.818l6.594,19.627
			l6.097-19.627c0.201-0.547,0.597-0.818,1.186-0.818h7c0.331,0,0.564,0.061,0.701,0.183c0.139,0.12,0.204,0.284,0.204,0.484
			c0,0.116-0.007,0.194-0.022,0.238v0.063l-3.833,10.987l2.886,8.466l6.979-19.604c0.202-0.547,0.597-0.818,1.186-0.818h6.787
			c0.331,0,0.562,0.061,0.701,0.183c0.134,0.122,0.205,0.284,0.205,0.484c0,0.116-0.007,0.194-0.022,0.238v0.063
			c-0.979,2.529-1.977,5.049-2.994,7.563c-1.02,2.514-2.045,5.026-3.072,7.54c-1.027,2.515-2.047,5.031-3.058,7.551
			c-1.015,2.522-2.001,5.039-2.962,7.552c-0.059,0.158-0.188,0.337-0.39,0.529c-0.202,0.193-0.445,0.291-0.733,0.291h-0.063h-5.216
			c-0.316,0-0.556-0.061-0.722-0.182c-0.164-0.125-0.283-0.286-0.355-0.488l-3.403-8.959c-0.488,1.307-0.969,2.588-1.444,3.844
			c-0.473,1.258-0.947,2.539-1.421,3.846c-0.073,0.202-0.155,0.414-0.249,0.636c-0.092,0.224-0.204,0.431-0.333,0.626
			c-0.13,0.194-0.277,0.355-0.442,0.484c-0.165,0.13-0.355,0.194-0.572,0.194h-0.064h-5.214
			C211.771,143.653,211.47,143.501,211.326,143.2z"/>
		<path d="M270.68,130.892c0,1.065,0.146,1.967,0.441,2.709c0.294,0.74,0.684,1.342,1.166,1.81s1.044,0.808,1.685,1.024
			c0.643,0.215,1.307,0.324,1.999,0.324c0.72,0,1.399-0.127,2.04-0.377c0.641-0.254,1.203-0.626,1.685-1.121
			c0.482-0.497,0.864-1.111,1.145-1.844c0.282-0.733,0.421-1.576,0.421-2.525v-18.283c0-0.261,0.09-0.482,0.27-0.67
			c0.18-0.186,0.419-0.279,0.721-0.279h6.292c0.329,0,0.587,0.097,0.774,0.289c0.188,0.193,0.28,0.414,0.28,0.656v18.162
			c0,2.515-0.37,4.625-1.11,6.334c-0.738,1.709-1.733,3.084-2.984,4.126c-1.249,1.044-2.695,1.79-4.34,2.243
			c-1.643,0.449-3.372,0.677-5.18,0.677c-1.812,0-3.542-0.235-5.192-0.7c-1.653-0.467-3.104-1.228-4.353-2.283
			c-1.249-1.057-2.245-2.437-2.984-4.137c-0.74-1.701-1.11-3.787-1.11-6.259v-18.162c0-0.242,0.083-0.462,0.249-0.656
			c0.163-0.192,0.368-0.29,0.611-0.29h6.448c0.214,0,0.441,0.091,0.677,0.271c0.236,0.181,0.353,0.403,0.353,0.679V130.892
			L270.68,130.892z"/>
		<path d="M295.435,112.65c0-0.302,0.078-0.543,0.236-0.721c0.158-0.18,0.394-0.27,0.711-0.27h13.766
			c0.991,0,1.926,0.136,2.802,0.408c0.876,0.273,1.68,0.648,2.413,1.132c0.733,0.479,1.393,1.054,1.981,1.724
			c0.589,0.667,1.088,1.391,1.497,2.164c0.409,0.777,0.723,1.591,0.938,2.447c0.216,0.854,0.324,1.718,0.324,2.594
			c0,1.293-0.234,2.559-0.701,3.793c-0.465,1.233-1.129,2.334-1.991,3.297c-0.864,0.962-1.896,1.74-3.104,2.336
			c-1.205,0.598-2.541,0.904-4.007,0.916h-6.529v10.256c0,0.617-0.329,0.927-0.991,0.927h-6.397c-0.288,0-0.519-0.075-0.689-0.226
			c-0.175-0.151-0.261-0.387-0.261-0.703V112.65H295.435z M311.657,122.087c0-0.431-0.075-0.861-0.226-1.295
			c-0.151-0.431-0.37-0.813-0.658-1.151c-0.285-0.34-0.635-0.613-1.044-0.83c-0.409-0.214-0.874-0.321-1.39-0.321h-4.567v7.194
			h4.567c0.516,0,0.983-0.104,1.4-0.313c0.416-0.207,0.764-0.478,1.046-0.807c0.28-0.33,0.494-0.711,0.648-1.143
			C311.584,122.99,311.657,122.546,311.657,122.087z"/>
		<path d="M347.441,112.499c0.015-0.084,0.061-0.181,0.141-0.281c0.078-0.1,0.175-0.193,0.29-0.28
			c0.115-0.085,0.236-0.152,0.365-0.204c0.132-0.051,0.253-0.076,0.368-0.076h5.516c0.244,0,0.45,0.076,0.623,0.227
			s0.302,0.283,0.39,0.399l0.541,1.227l11.307,29.169c0.117,0.289,0.095,0.521-0.063,0.702c-0.159,0.181-0.431,0.271-0.818,0.271
			h-6.183c-0.331,0-0.586-0.061-0.764-0.182c-0.18-0.125-0.321-0.33-0.418-0.615c-0.29-0.733-0.57-1.461-0.842-2.187
			c-0.275-0.726-0.545-1.453-0.818-2.187h-11.441c-0.272,0.733-0.548,1.461-0.83,2.187c-0.28,0.726-0.555,1.453-0.83,2.187
			c-0.185,0.533-0.55,0.798-1.098,0.798h-6.356c-0.272,0-0.499-0.073-0.679-0.216c-0.18-0.145-0.211-0.358-0.097-0.646
			L347.441,112.499z M351.363,121.72c-0.273,0.732-0.55,1.523-0.83,2.369c-0.28,0.848-0.555,1.702-0.83,2.564
			c-0.273,0.861-0.548,1.712-0.828,2.555c-0.282,0.84-0.557,1.625-0.83,2.358h6.614L351.363,121.72z"/>
		<path d="M371.355,112.606c0-0.258,0.078-0.479,0.236-0.667c0.158-0.186,0.394-0.279,0.71-0.279h7.045
			c0.2,0,0.407,0.051,0.625,0.15c0.214,0.1,0.399,0.272,0.558,0.516c1.823,2.945,3.634,5.848,5.429,8.705
			c1.794,2.858,3.612,5.759,5.45,8.701v-17.256c0.059-0.258,0.173-0.461,0.346-0.604c0.173-0.142,0.372-0.215,0.604-0.215h6.14
			c0.302,0,0.553,0.083,0.755,0.248c0.199,0.166,0.302,0.396,0.302,0.699v30.207c0,0.286-0.088,0.499-0.261,0.635
			c-0.173,0.139-0.409,0.205-0.711,0.205h-6.872c-0.188,0-0.353-0.066-0.496-0.195c-0.144-0.127-0.295-0.301-0.451-0.516
			c-1.911-3.158-3.8-6.285-5.667-9.372c-1.867-3.091-3.764-6.212-5.687-9.372v18.506c0,0.316-0.073,0.555-0.217,0.711
			c-0.144,0.158-0.402,0.236-0.774,0.236h-6.118c-0.331,0-0.569-0.09-0.72-0.27c-0.151-0.182-0.227-0.399-0.227-0.657V112.606z"/>
		<path d="M434.284,127.69c0,1.521-0.189,2.97-0.582,4.339c-0.387,1.372-0.939,2.651-1.656,3.834
			c-0.717,1.186-1.578,2.261-2.574,3.221c-0.998,0.965-2.105,1.783-3.316,2.457c-1.213,0.678-2.525,1.198-3.932,1.563
			c-1.408,0.368-2.865,0.549-4.375,0.549h-10.621c-0.258,0-0.486-0.058-0.689-0.173c-0.201-0.114-0.301-0.357-0.301-0.732V112.65
			c0-0.302,0.082-0.545,0.248-0.732c0.166-0.186,0.412-0.28,0.742-0.28h10.621c1.51,0,2.963,0.187,4.365,0.559
			c1.398,0.376,2.707,0.907,3.918,1.595c1.215,0.688,2.326,1.516,3.33,2.479c1.006,0.959,1.863,2.039,2.574,3.229
			c0.711,1.192,1.266,2.479,1.66,3.858C434.086,124.736,434.284,126.181,434.284,127.69z M414.571,119.372v16.567h1.813
			c0.328,0,0.652-0.011,0.969-0.032c0.316-0.02,0.631-0.046,0.947-0.074c1.078-0.086,2.082-0.349,3.016-0.788
			c0.934-0.438,1.75-1.013,2.445-1.724c0.697-0.709,1.242-1.549,1.637-2.51c0.396-0.961,0.596-2.011,0.596-3.145
			c0-1.208-0.229-2.316-0.678-3.33c-0.453-1.014-1.066-1.887-1.846-2.626c-0.775-0.741-1.682-1.315-2.725-1.725
			c-1.041-0.41-2.152-0.614-3.33-0.614H414.571z"/>
		<path d="M457.444,133.312c0.244,0.199,0.559,0.47,0.938,0.806c0.383,0.337,0.816,0.671,1.307,1.003
			c0.734,0.489,1.457,0.869,2.174,1.143c0.717,0.271,1.473,0.408,2.262,0.408c0.732,0,1.348-0.082,1.846-0.246
			c0.492-0.165,0.887-0.385,1.172-0.657c0.287-0.271,0.494-0.589,0.613-0.946c0.121-0.361,0.182-0.74,0.182-1.143
			c0-0.443-0.168-0.842-0.506-1.195c-0.336-0.35-0.75-0.662-1.24-0.934c-0.486-0.273-0.998-0.507-1.527-0.701
			c-0.531-0.193-0.992-0.355-1.379-0.486c-1.723-0.6-3.232-1.251-4.525-1.947c-1.291-0.697-2.367-1.472-3.232-2.324
			c-0.861-0.855-1.506-1.795-1.938-2.819c-0.432-1.027-0.648-2.171-0.648-3.435c0-1.334,0.271-2.547,0.807-3.637
			c0.543-1.091,1.307-2.025,2.309-2.8c0.998-0.774,2.199-1.374,3.607-1.796c1.406-0.424,2.979-0.637,4.717-0.637
			c1.307,0,2.561,0.146,3.76,0.441s2.379,0.764,3.545,1.412c0.49,0.287,0.953,0.585,1.389,0.895
			c0.438,0.309,0.822,0.604,1.156,0.893c0.328,0.289,0.592,0.563,0.787,0.82c0.189,0.259,0.287,0.482,0.287,0.668
			s-0.047,0.359-0.137,0.518c-0.096,0.158-0.236,0.336-0.424,0.539l-3.297,3.508c-0.242,0.246-0.488,0.369-0.732,0.369
			c-0.201,0-0.385-0.06-0.549-0.174s-0.346-0.258-0.547-0.431l-0.193-0.173c-0.287-0.244-0.607-0.494-0.963-0.755
			c-0.348-0.258-0.727-0.491-1.127-0.698c-0.404-0.209-0.828-0.381-1.273-0.519c-0.445-0.137-0.895-0.204-1.355-0.204
			c-0.475,0-0.92,0.039-1.336,0.119s-0.783,0.204-1.098,0.377c-0.316,0.174-0.568,0.399-0.756,0.68
			c-0.188,0.281-0.279,0.62-0.279,1.021c0,0.402,0.1,0.75,0.303,1.045c0.199,0.295,0.5,0.566,0.902,0.82
			c0.404,0.25,0.902,0.486,1.5,0.711c0.594,0.221,1.287,0.461,2.078,0.719c1.521,0.504,2.926,1.032,4.211,1.585
			s2.396,1.205,3.328,1.96c0.936,0.753,1.662,1.654,2.189,2.704c0.523,1.05,0.785,2.319,0.785,3.812c0,1.582-0.324,3.014-0.971,4.3
			c-0.645,1.285-1.531,2.38-2.66,3.286c-1.127,0.904-2.451,1.604-3.977,2.102c-1.521,0.493-3.156,0.742-4.906,0.742
			c-1.654,0-3.277-0.297-4.871-0.885c-1.596-0.59-3.08-1.383-4.461-2.377c-0.574-0.418-1.059-0.83-1.453-1.231
			c-0.395-0.403-0.707-0.728-0.938-0.972l-0.064-0.064c-0.018-0.029-0.029-0.049-0.041-0.057c-0.016-0.005-0.029-0.018-0.045-0.03
			c-0.014-0.029-0.029-0.046-0.043-0.054c-0.016-0.008-0.029-0.019-0.041-0.031c-0.332-0.361-0.498-0.649-0.498-0.863
			c0-0.246,0.166-0.519,0.498-0.822l3.727-3.557c0.301-0.216,0.545-0.323,0.732-0.323c0.129,0,0.266,0.044,0.408,0.13
			C457.073,133.01,457.245,133.14,457.444,133.312z"/>
		<path d="M490.84,112.499c0.016-0.084,0.063-0.181,0.139-0.281c0.078-0.1,0.178-0.193,0.293-0.28
			c0.113-0.084,0.236-0.152,0.365-0.204c0.129-0.051,0.25-0.076,0.365-0.076h5.516c0.242,0,0.453,0.076,0.625,0.227
			c0.176,0.15,0.303,0.283,0.391,0.399l0.537,1.227l11.313,29.169c0.113,0.289,0.092,0.521-0.066,0.702s-0.434,0.271-0.818,0.271
			h-6.182c-0.334,0-0.59-0.061-0.766-0.182c-0.18-0.125-0.32-0.33-0.42-0.615c-0.287-0.733-0.568-1.461-0.84-2.187
			c-0.273-0.726-0.549-1.453-0.818-2.187h-11.441c-0.275,0.733-0.551,1.461-0.83,2.187c-0.283,0.726-0.555,1.453-0.828,2.187
			c-0.188,0.533-0.555,0.798-1.1,0.798h-6.359c-0.271,0-0.496-0.073-0.676-0.216c-0.18-0.145-0.211-0.358-0.098-0.646
			L490.84,112.499z M494.76,121.72c-0.273,0.732-0.549,1.523-0.828,2.369c-0.279,0.848-0.557,1.702-0.83,2.564
			s-0.551,1.712-0.83,2.555c-0.279,0.84-0.557,1.625-0.83,2.358h6.613L494.76,121.72z"/>
		<path d="M521.01,123.465l5.207-11.14c0.084-0.172,0.156-0.297,0.215-0.377c0.059-0.079,0.115-0.137,0.174-0.172
			c0.055-0.035,0.119-0.059,0.182-0.065c0.066-0.007,0.139-0.024,0.227-0.054h8.293c0.104,0,0.184,0.031,0.246,0.098
			c0.068,0.063,0.098,0.139,0.098,0.227c0,0.158-0.1,0.337-0.299,0.539l-10.213,18.074v12.045c0,0.674-0.328,1.013-0.988,1.013
			h-6.445c-0.287,0-0.51-0.09-0.668-0.271s-0.234-0.426-0.234-0.742v-12.086l-10.191-18.033c-0.188-0.188-0.279-0.367-0.279-0.539
			c0-0.087,0.023-0.164,0.082-0.227c0.059-0.066,0.137-0.098,0.236-0.098h8.297c0.1,0.029,0.18,0.047,0.236,0.054
			c0.059,0.007,0.113,0.029,0.172,0.065c0.057,0.034,0.115,0.093,0.174,0.172c0.055,0.079,0.135,0.205,0.236,0.377L521.01,123.465z"
			/>
		<path d="M561.997,143.2c-0.143-0.242-0.279-0.496-0.408-0.754s-0.244-0.516-0.344-0.773c-1.854-4.884-3.699-9.726-5.535-14.523
			c-1.84-4.796-3.684-9.637-5.537-14.52c0-0.072-0.01-0.137-0.033-0.192c-0.021-0.059-0.031-0.116-0.031-0.173
			c0-0.401,0.266-0.604,0.797-0.604h6.938c0.545,0,0.92,0.272,1.119,0.818l6.596,19.627l6.094-19.627
			c0.203-0.547,0.598-0.818,1.186-0.818h7.002c0.33,0,0.564,0.061,0.701,0.183c0.137,0.12,0.205,0.284,0.205,0.484
			c0,0.116-0.008,0.194-0.023,0.238v0.063l-3.834,10.987l2.889,8.466l6.979-19.604c0.201-0.547,0.596-0.818,1.186-0.818h6.787
			c0.33,0,0.564,0.061,0.701,0.183c0.135,0.12,0.203,0.284,0.203,0.484c0,0.116-0.006,0.194-0.021,0.238v0.063
			c-0.977,2.529-1.975,5.049-2.994,7.563s-2.045,5.026-3.07,7.54c-1.027,2.515-2.047,5.031-3.059,7.551
			c-1.014,2.522-2.002,5.039-2.963,7.552c-0.059,0.158-0.188,0.337-0.387,0.529c-0.203,0.193-0.445,0.291-0.736,0.291h-0.064h-5.215
			c-0.316,0-0.555-0.061-0.721-0.182c-0.166-0.125-0.285-0.286-0.355-0.488l-3.406-8.959c-0.486,1.307-0.965,2.588-1.439,3.844
			c-0.473,1.258-0.949,2.539-1.424,3.846c-0.072,0.202-0.154,0.414-0.244,0.636c-0.096,0.224-0.207,0.431-0.338,0.626
			c-0.129,0.194-0.275,0.355-0.441,0.484c-0.166,0.13-0.355,0.194-0.572,0.194h-0.063h-5.215
			C562.442,143.653,562.141,143.501,561.997,143.2z"/>
		<path d="M595.973,127.69c0-1.524,0.195-2.985,0.584-4.386c0.389-1.402,0.939-2.717,1.658-3.943
			c0.721-1.228,1.576-2.344,2.578-3.35c0.998-1.005,2.107-1.864,3.33-2.575c1.221-0.71,2.533-1.263,3.934-1.657
			c1.402-0.396,2.865-0.594,4.389-0.594c1.506,0,2.967,0.196,4.375,0.594c1.408,0.395,2.723,0.947,3.945,1.657
			c1.223,0.711,2.334,1.571,3.342,2.575c1.006,1.006,1.865,2.121,2.576,3.35c0.711,1.227,1.266,2.541,1.66,3.943
			c0.395,1.4,0.594,2.861,0.594,4.386c0,1.521-0.199,2.982-0.594,4.384c-0.395,1.4-0.949,2.707-1.66,3.921
			c-0.711,1.215-1.57,2.319-2.576,3.317c-1.008,1.001-2.119,1.857-3.342,2.574c-1.223,0.719-2.537,1.272-3.945,1.658
			c-1.408,0.391-2.869,0.582-4.375,0.582c-1.523,0-2.986-0.191-4.389-0.582c-1.4-0.387-2.713-0.939-3.934-1.658
			c-1.223-0.717-2.332-1.574-3.33-2.574c-1.002-0.998-1.857-2.104-2.578-3.317c-0.719-1.214-1.271-2.52-1.658-3.921
			C596.168,130.671,595.973,129.21,595.973,127.69z M604.315,127.667c0,1.192,0.197,2.307,0.6,3.341
			c0.4,1.032,0.963,1.935,1.689,2.702c0.723,0.77,1.582,1.373,2.57,1.811c0.99,0.438,2.078,0.656,3.271,0.656
			c1.189,0,2.283-0.219,3.279-0.656c0.998-0.439,1.859-1.041,2.582-1.811c0.727-0.768,1.289-1.67,1.689-2.702
			c0.402-1.034,0.602-2.148,0.602-3.341c0-1.178-0.199-2.289-0.602-3.33c-0.4-1.04-0.963-1.949-1.689-2.725
			c-0.723-0.776-1.584-1.388-2.582-1.83c-0.996-0.445-2.09-0.67-3.279-0.67c-1.193,0-2.281,0.225-3.271,0.67
			c-0.988,0.441-1.846,1.054-2.57,1.83c-0.727,0.774-1.289,1.685-1.689,2.725C604.512,125.378,604.315,126.49,604.315,127.667z"/>
		<path d="M634.237,112.65c0-0.302,0.078-0.543,0.236-0.721c0.158-0.18,0.395-0.27,0.711-0.27h13.92c1.477,0,2.865,0.277,4.158,0.83
			c1.291,0.552,2.42,1.302,3.381,2.251c0.961,0.948,1.721,2.058,2.273,3.329c0.553,1.271,0.83,2.623,0.83,4.061
			c0,0.979-0.135,1.904-0.398,2.788c-0.266,0.884-0.637,1.712-1.111,2.479c-0.475,0.769-1.037,1.466-1.691,2.091
			c-0.652,0.623-1.367,1.16-2.143,1.604l5.535,10.429c0.104,0.199,0.232,0.439,0.391,0.711s0.236,0.508,0.236,0.709
			c0,0.23-0.078,0.404-0.229,0.529c-0.152,0.122-0.354,0.182-0.611,0.182h-7.393c-0.242,0-0.463-0.073-0.656-0.217
			c-0.191-0.144-0.32-0.337-0.379-0.582l-5.232-9.844h-3.492v9.715c0,0.619-0.332,0.928-0.99,0.928h-6.4
			c-0.285,0-0.516-0.076-0.689-0.227c-0.172-0.15-0.258-0.386-0.258-0.702V112.65H634.237z M651.11,122.216
			c0-0.431-0.08-0.86-0.238-1.291c-0.158-0.432-0.381-0.828-0.668-1.186c-0.287-0.36-0.633-0.66-1.033-0.906
			c-0.402-0.242-0.848-0.4-1.338-0.475c-0.4-0.026-0.779-0.055-1.129-0.076c-0.354-0.021-0.738-0.031-1.154-0.031h-2.973v7.906
			h3.963c0.262,0,0.49-0.008,0.691-0.021c0.201-0.013,0.424-0.035,0.668-0.063c0.502-0.059,0.953-0.204,1.357-0.443
			c0.402-0.235,0.738-0.53,1.014-0.882s0.482-0.746,0.623-1.185C651.036,123.126,651.11,122.677,651.11,122.216z"/>
		<path d="M692.213,127.69c0,1.521-0.195,2.97-0.582,4.339c-0.391,1.372-0.943,2.651-1.66,3.834
			c-0.719,1.186-1.576,2.261-2.574,3.221c-0.998,0.965-2.104,1.783-3.314,2.457c-1.217,0.678-2.525,1.198-3.932,1.563
			c-1.41,0.368-2.867,0.549-4.375,0.549h-10.621c-0.26,0-0.488-0.058-0.691-0.173c-0.199-0.114-0.299-0.357-0.299-0.732V112.65
			c0-0.302,0.08-0.545,0.246-0.732c0.166-0.186,0.414-0.28,0.744-0.28h10.621c1.508,0,2.963,0.187,4.363,0.559
			c1.398,0.376,2.707,0.907,3.918,1.595c1.215,0.688,2.322,1.516,3.328,2.479c1.008,0.959,1.865,2.039,2.576,3.229
			c0.711,1.192,1.264,2.479,1.658,3.858C692.016,124.736,692.213,126.181,692.213,127.69z M672.502,119.372v16.567h1.807
			c0.332,0,0.654-0.011,0.969-0.032c0.316-0.021,0.633-0.046,0.949-0.074c1.076-0.086,2.08-0.349,3.016-0.788
			c0.932-0.438,1.748-1.013,2.443-1.724c0.699-0.709,1.244-1.549,1.639-2.51c0.395-0.963,0.592-2.011,0.592-3.145
			c0-1.208-0.227-2.316-0.676-3.33c-0.451-1.014-1.066-1.887-1.844-2.626c-0.777-0.741-1.684-1.315-2.727-1.725
			c-1.041-0.41-2.148-0.614-3.328-0.614H672.502z"/>
		<path d="M700.528,133.312c0.244,0.199,0.559,0.47,0.938,0.806c0.383,0.337,0.816,0.671,1.305,1.003
			c0.734,0.489,1.455,0.869,2.176,1.143c0.717,0.271,1.473,0.408,2.262,0.408c0.732,0,1.346-0.082,1.844-0.246
			c0.494-0.165,0.885-0.385,1.172-0.657c0.289-0.271,0.492-0.589,0.615-0.946c0.121-0.361,0.182-0.74,0.182-1.143
			c0-0.443-0.168-0.842-0.506-1.195c-0.336-0.35-0.75-0.662-1.24-0.934c-0.486-0.273-0.998-0.507-1.527-0.701
			c-0.531-0.193-0.992-0.355-1.379-0.486c-1.723-0.6-3.232-1.251-4.525-1.947c-1.293-0.697-2.367-1.472-3.232-2.324
			c-0.861-0.855-1.506-1.795-1.938-2.819c-0.432-1.027-0.65-2.171-0.65-3.435c0-1.334,0.273-2.547,0.809-3.637
			c0.541-1.091,1.307-2.025,2.305-2.8c1.002-0.774,2.203-1.374,3.611-1.796c1.406-0.424,2.979-0.637,4.717-0.637
			c1.307,0,2.561,0.146,3.758,0.441c1.201,0.295,2.381,0.764,3.545,1.412c0.492,0.287,0.955,0.585,1.391,0.895
			c0.438,0.309,0.822,0.604,1.154,0.893c0.33,0.289,0.594,0.563,0.785,0.82c0.193,0.259,0.289,0.482,0.289,0.668
			s-0.045,0.359-0.139,0.518c-0.092,0.158-0.232,0.336-0.42,0.539l-3.297,3.508c-0.242,0.246-0.488,0.369-0.732,0.369
			c-0.201,0-0.385-0.06-0.551-0.174c-0.162-0.114-0.348-0.258-0.547-0.431l-0.191-0.173c-0.289-0.244-0.607-0.494-0.963-0.755
			c-0.35-0.258-0.727-0.491-1.129-0.698c-0.402-0.209-0.826-0.381-1.271-0.519c-0.445-0.137-0.895-0.204-1.355-0.204
			c-0.475,0-0.92,0.039-1.336,0.119s-0.783,0.204-1.098,0.377c-0.316,0.174-0.568,0.399-0.756,0.68
			c-0.188,0.281-0.279,0.62-0.279,1.021c0,0.402,0.1,0.75,0.303,1.045c0.199,0.295,0.5,0.566,0.902,0.82
			c0.404,0.25,0.902,0.486,1.5,0.711c0.594,0.221,1.287,0.461,2.078,0.719c1.521,0.504,2.926,1.032,4.211,1.585
			s2.396,1.205,3.328,1.96c0.936,0.753,1.662,1.654,2.189,2.704c0.523,1.05,0.785,2.319,0.785,3.812c0,1.582-0.324,3.014-0.971,4.3
			c-0.645,1.285-1.533,2.38-2.66,3.286c-1.127,0.904-2.453,1.604-3.977,2.102c-1.521,0.493-3.16,0.742-4.906,0.742
			c-1.654,0-3.279-0.297-4.871-0.885c-1.596-0.59-3.082-1.383-4.461-2.377c-0.574-0.418-1.059-0.83-1.453-1.231
			c-0.395-0.403-0.707-0.728-0.938-0.972l-0.064-0.064c-0.018-0.029-0.029-0.049-0.041-0.057c-0.018-0.005-0.029-0.018-0.045-0.03
			c-0.014-0.029-0.029-0.046-0.043-0.054c-0.016-0.008-0.029-0.019-0.043-0.031c-0.33-0.361-0.496-0.649-0.496-0.863
			c0-0.246,0.166-0.519,0.496-0.822l3.729-3.557c0.301-0.216,0.545-0.323,0.732-0.323c0.129,0,0.266,0.044,0.408,0.13
			C700.157,133.01,700.327,133.14,700.528,133.312z"/>
		<path d="M724.229,137.448c0-0.287,0.078-0.518,0.238-0.689c0.158-0.173,0.395-0.261,0.711-0.261h5.705
			c0.242,0,0.471,0.088,0.68,0.261c0.209,0.172,0.314,0.401,0.314,0.689v5.215c0,0.258-0.084,0.488-0.248,0.689
			c-0.166,0.201-0.414,0.301-0.746,0.301h-5.705c-0.633,0-0.949-0.33-0.949-0.99V137.448L724.229,137.448z"/>
	</g>
	<path d="M82.238,187.527c0.244,0.199,0.556,0.469,0.938,0.804c0.38,0.339,0.815,0.672,1.302,1.005
		c0.733,0.488,1.458,0.869,2.176,1.141c0.718,0.273,1.472,0.41,2.262,0.41c0.733,0,1.347-0.084,1.842-0.246
		c0.495-0.166,0.886-0.385,1.173-0.658c0.289-0.271,0.493-0.588,0.616-0.946c0.122-0.36,0.183-0.74,0.183-1.142
		c0-0.444-0.168-0.842-0.506-1.195c-0.338-0.351-0.75-0.662-1.239-0.936c-0.488-0.271-0.999-0.506-1.53-0.7
		c-0.531-0.192-0.991-0.355-1.378-0.485c-1.724-0.601-3.232-1.252-4.525-1.947c-1.292-0.698-2.369-1.473-3.231-2.325
		c-0.862-0.854-1.508-1.794-1.939-2.819c-0.431-1.027-0.647-2.172-0.647-3.436c0-1.333,0.27-2.547,0.808-3.637
		c0.538-1.091,1.307-2.025,2.305-2.799c0.999-0.773,2.202-1.374,3.61-1.797c1.409-0.422,2.98-0.635,4.719-0.635
		c1.306,0,2.56,0.146,3.76,0.44c1.199,0.295,2.381,0.765,3.543,1.412c0.489,0.287,0.952,0.585,1.39,0.895s0.82,0.604,1.153,0.894
		c0.33,0.288,0.593,0.563,0.786,0.82s0.291,0.482,0.291,0.666c0,0.188-0.047,0.359-0.141,0.518c-0.094,0.16-0.234,0.338-0.42,0.54
		l-3.297,3.509c-0.244,0.246-0.488,0.367-0.733,0.367c-0.202,0-0.385-0.059-0.549-0.172c-0.165-0.115-0.348-0.259-0.549-0.432
		l-0.195-0.173c-0.286-0.243-0.606-0.494-0.958-0.755c-0.353-0.258-0.729-0.491-1.132-0.698c-0.403-0.21-0.826-0.381-1.271-0.519
		c-0.445-0.137-0.897-0.204-1.357-0.204c-0.474,0-0.919,0.04-1.336,0.119c-0.416,0.079-0.783,0.204-1.098,0.377
		c-0.317,0.175-0.568,0.399-0.755,0.679c-0.187,0.281-0.28,0.621-0.28,1.023c0,0.401,0.101,0.75,0.301,1.044
		c0.201,0.294,0.502,0.567,0.905,0.82c0.402,0.251,0.901,0.487,1.497,0.711c0.596,0.222,1.289,0.462,2.079,0.72
		c1.521,0.504,2.926,1.031,4.211,1.584c1.285,0.553,2.394,1.205,3.328,1.96c0.933,0.753,1.663,1.655,2.186,2.704
		c0.524,1.049,0.787,2.318,0.787,3.813c0,1.581-0.324,3.014-0.971,4.299c-0.646,1.285-1.532,2.381-2.661,3.287
		c-1.127,0.904-2.453,1.604-3.974,2.102c-1.522,0.492-3.161,0.742-4.912,0.742c-1.652,0-3.275-0.297-4.87-0.887
		c-1.594-0.588-3.082-1.382-4.46-2.375c-0.574-0.419-1.06-0.83-1.455-1.232c-0.395-0.402-0.708-0.728-0.937-0.973l-0.064-0.064
		c-0.015-0.027-0.029-0.047-0.044-0.056c-0.015-0.005-0.028-0.017-0.043-0.03c-0.015-0.029-0.029-0.047-0.043-0.054
		c-0.015-0.007-0.029-0.019-0.044-0.031c-0.331-0.36-0.495-0.649-0.495-0.863c0-0.245,0.164-0.519,0.495-0.823l3.728-3.555
		c0.302-0.217,0.545-0.324,0.732-0.324c0.129,0,0.265,0.045,0.41,0.131C81.864,187.224,82.038,187.355,82.238,187.527z"/>
	<path d="M104.989,181.904c0-1.524,0.195-2.985,0.582-4.385c0.39-1.402,0.941-2.717,1.66-3.943c0.718-1.229,1.578-2.345,2.577-3.35
		c0.998-1.007,2.109-1.865,3.33-2.576c1.221-0.709,2.533-1.264,3.935-1.657c1.402-0.396,2.864-0.595,4.387-0.595
		c1.509,0,2.967,0.197,4.377,0.595c1.407,0.394,2.724,0.948,3.946,1.657c1.221,0.711,2.334,1.57,3.34,2.576
		c1.007,1.004,1.865,2.12,2.577,3.35c0.711,1.227,1.265,2.541,1.66,3.943c0.396,1.399,0.593,2.86,0.593,4.385
		c0,1.521-0.196,2.982-0.593,4.385c-0.396,1.399-0.948,2.707-1.66,3.92c-0.712,1.215-1.57,2.318-2.577,3.318
		c-1.005,1-2.119,1.855-3.34,2.574c-1.222,0.719-2.537,1.271-3.946,1.658c-1.41,0.391-2.868,0.582-4.377,0.582
		c-1.522,0-2.987-0.191-4.387-0.582c-1.402-0.388-2.714-0.939-3.935-1.658s-2.332-1.575-3.33-2.574
		c-0.999-1-1.858-2.104-2.577-3.318c-0.719-1.213-1.273-2.52-1.66-3.92C105.182,184.885,104.989,183.424,104.989,181.904z
		 M113.327,181.881c0,1.192,0.199,2.306,0.601,3.341c0.402,1.031,0.964,1.936,1.689,2.702c0.723,0.769,1.581,1.373,2.571,1.812
		c0.989,0.438,2.079,0.656,3.27,0.656c1.192,0,2.285-0.22,3.282-0.656c0.997-0.438,1.857-1.043,2.583-1.812
		c0.724-0.767,1.288-1.671,1.688-2.702c0.401-1.035,0.603-2.148,0.603-3.341c0-1.177-0.201-2.288-0.603-3.33
		c-0.4-1.04-0.964-1.948-1.688-2.724c-0.725-0.777-1.586-1.389-2.583-1.832c-0.997-0.445-2.091-0.668-3.282-0.668
		c-1.19,0-2.281,0.223-3.27,0.668c-0.99,0.443-1.848,1.055-2.571,1.832c-0.726,0.773-1.288,1.684-1.689,2.724
		C113.526,179.593,113.327,180.704,113.327,181.881z"/>
	<path d="M144.997,166.82c0.028-0.258,0.129-0.479,0.301-0.666c0.171-0.188,0.416-0.281,0.731-0.281h7.455
		c0.531,0,0.875,0.273,1.033,0.818l5.862,19.561l5.902-19.561c0.201-0.547,0.567-0.818,1.099-0.818h7.368
		c0.259,0,0.493,0.091,0.7,0.271c0.209,0.178,0.327,0.403,0.355,0.676c0.502,5.058,1.016,10.073,1.541,15.049
		c0.525,4.979,1.039,9.996,1.541,15.049v0.109c0,0.561-0.316,0.84-0.949,0.84h-6.097c-0.661,0-1.005-0.316-1.035-0.949
		l-1.875-16.652l-4.847,16.762c-0.029,0.145-0.134,0.314-0.313,0.517c-0.18,0.202-0.355,0.302-0.528,0.302h-5.665
		c-0.173,0-0.355-0.098-0.549-0.292c-0.195-0.192-0.298-0.368-0.313-0.526l-4.847-16.719l-1.875,16.609
		c-0.029,0.633-0.381,0.949-1.056,0.949h-6.097c-0.619,0-0.927-0.316-0.927-0.949L144.997,166.82z"/>
	<path d="M184.596,166.864c0-0.302,0.083-0.542,0.246-0.72c0.166-0.181,0.398-0.271,0.698-0.271h21.374
		c0.316,0,0.56,0.094,0.734,0.281c0.173,0.185,0.257,0.437,0.257,0.753v5.326c0,0.242-0.084,0.478-0.257,0.698
		c-0.174,0.222-0.425,0.334-0.755,0.334h-13.959v5.344h10.773c0.273,0,0.498,0.064,0.678,0.191c0.18,0.131,0.27,0.346,0.27,0.648
		v4.651c0,0.202-0.08,0.396-0.236,0.581c-0.158,0.188-0.389,0.281-0.691,0.281h-10.794v5.517h14.479
		c0.645,0,0.969,0.329,0.969,0.988v5.414c0,0.144-0.059,0.272-0.173,0.388c-0.059,0.398-0.352,0.601-0.884,0.601H185.54
		c-0.287,0-0.516-0.075-0.688-0.227c-0.171-0.151-0.258-0.386-0.258-0.702L184.596,166.864L184.596,166.864z"/>
	<path d="M211.934,166.818c0-0.285,0.097-0.514,0.291-0.687c0.192-0.173,0.435-0.259,0.722-0.259h23.181
		c0.258,0,0.489,0.08,0.691,0.236c0.2,0.158,0.316,0.394,0.343,0.707v5.349c0,0.259-0.09,0.507-0.271,0.743
		s-0.433,0.355-0.764,0.355h-7.431v23.589c0,0.261-0.095,0.493-0.28,0.701c-0.188,0.21-0.433,0.313-0.73,0.313h-6.318
		c-0.245,0-0.474-0.097-0.688-0.291c-0.214-0.194-0.323-0.437-0.323-0.723v-23.59h-7.411c-0.287,0-0.529-0.094-0.722-0.279
		c-0.194-0.187-0.291-0.457-0.291-0.818V166.818z"/>
	<path d="M242.461,166.82c0-0.258,0.081-0.479,0.236-0.666c0.158-0.188,0.395-0.281,0.711-0.281h6.334
		c0.217,0,0.446,0.086,0.691,0.259c0.244,0.173,0.365,0.401,0.365,0.688v30.098c0,0.633-0.353,0.949-1.057,0.949h-6.334
		c-0.633,0-0.947-0.316-0.947-0.949V166.82L242.461,166.82z"/>
	<path d="M259.523,166.82c0.029-0.258,0.129-0.479,0.302-0.666s0.416-0.281,0.733-0.281h7.454c0.531,0,0.876,0.273,1.035,0.818
		l5.859,19.561l5.903-19.561c0.2-0.547,0.567-0.818,1.101-0.818h7.366c0.26,0,0.494,0.091,0.701,0.271
		c0.209,0.178,0.326,0.403,0.355,0.676c0.504,5.058,1.017,10.073,1.541,15.049c0.523,4.979,1.037,9.996,1.539,15.049v0.109
		c0,0.561-0.316,0.84-0.947,0.84h-6.098c-0.662,0-1.005-0.316-1.035-0.949l-1.874-16.652l-4.847,16.762
		c-0.029,0.145-0.134,0.314-0.314,0.517c-0.18,0.202-0.355,0.302-0.528,0.302h-5.665c-0.173,0-0.355-0.098-0.55-0.292
		c-0.192-0.192-0.297-0.368-0.312-0.526l-4.849-16.719l-1.875,16.609c-0.027,0.633-0.38,0.949-1.054,0.949h-6.1
		c-0.616,0-0.925-0.316-0.925-0.949L259.523,166.82z"/>
	<path d="M299.122,166.864c0-0.302,0.083-0.542,0.248-0.72c0.163-0.181,0.397-0.271,0.699-0.271h21.373
		c0.316,0,0.56,0.094,0.733,0.281c0.175,0.185,0.258,0.437,0.258,0.753v5.326c0,0.242-0.083,0.478-0.258,0.698
		c-0.173,0.222-0.423,0.334-0.752,0.334h-13.96v5.344h10.772c0.275,0,0.499,0.064,0.679,0.191c0.18,0.131,0.27,0.346,0.27,0.648
		v4.651c0,0.202-0.081,0.396-0.236,0.581c-0.158,0.188-0.389,0.281-0.691,0.281h-10.793v5.517h14.479
		c0.646,0,0.969,0.329,0.969,0.988v5.414c0,0.144-0.059,0.272-0.173,0.388c-0.059,0.398-0.353,0.601-0.884,0.601h-21.785
		c-0.285,0-0.516-0.075-0.689-0.227c-0.17-0.151-0.258-0.386-0.258-0.702V166.864z"/>
	<path d="M332.236,187.527c0.243,0.199,0.557,0.469,0.937,0.804c0.38,0.339,0.815,0.672,1.302,1.005
		c0.733,0.488,1.458,0.869,2.176,1.141c0.718,0.273,1.473,0.41,2.264,0.41c0.732,0,1.346-0.084,1.84-0.246
		c0.497-0.166,0.889-0.385,1.176-0.658c0.285-0.271,0.492-0.588,0.613-0.946c0.122-0.36,0.183-0.74,0.183-1.142
		c0-0.444-0.168-0.842-0.506-1.195c-0.338-0.351-0.75-0.662-1.239-0.936c-0.489-0.271-0.998-0.506-1.528-0.7
		c-0.533-0.192-0.991-0.355-1.38-0.485c-1.724-0.601-3.23-1.252-4.523-1.947c-1.292-0.698-2.371-1.473-3.233-2.325
		c-0.864-0.854-1.507-1.794-1.938-2.819c-0.434-1.027-0.65-2.172-0.65-3.436c0-1.333,0.27-2.547,0.808-3.637
		c0.538-1.091,1.307-2.025,2.305-2.799s2.203-1.374,3.61-1.797c1.409-0.422,2.982-0.635,4.72-0.635c1.305,0,2.559,0.146,3.759,0.44
		c1.2,0.295,2.381,0.765,3.544,1.412c0.489,0.287,0.952,0.585,1.39,0.895c0.436,0.31,0.82,0.604,1.151,0.894
		c0.331,0.288,0.594,0.563,0.787,0.82c0.195,0.258,0.292,0.482,0.292,0.666c0,0.188-0.046,0.359-0.141,0.518
		c-0.093,0.16-0.234,0.338-0.419,0.54l-3.296,3.509c-0.246,0.246-0.492,0.367-0.733,0.367c-0.202,0-0.387-0.059-0.55-0.172
		c-0.166-0.115-0.348-0.259-0.55-0.432l-0.192-0.173c-0.287-0.243-0.606-0.494-0.959-0.755c-0.353-0.258-0.73-0.491-1.132-0.698
		c-0.402-0.21-0.825-0.381-1.271-0.519c-0.445-0.137-0.898-0.204-1.358-0.204c-0.472,0-0.917,0.04-1.334,0.119
		c-0.418,0.079-0.784,0.204-1.1,0.377c-0.316,0.175-0.567,0.399-0.752,0.679c-0.187,0.281-0.282,0.621-0.282,1.023
		c0,0.401,0.103,0.75,0.302,1.044c0.202,0.294,0.501,0.567,0.906,0.82c0.401,0.251,0.903,0.487,1.497,0.711
		c0.596,0.222,1.29,0.462,2.079,0.72c1.524,0.504,2.926,1.031,4.214,1.584c1.283,0.553,2.393,1.205,3.328,1.96
		c0.933,0.753,1.663,1.655,2.186,2.704c0.526,1.049,0.787,2.318,0.787,3.813c0,1.581-0.324,3.014-0.969,4.299
		c-0.645,1.285-1.533,2.381-2.661,3.287c-1.127,0.904-2.454,1.604-3.975,2.102c-1.521,0.492-3.16,0.742-4.91,0.742
		c-1.65,0-3.276-0.297-4.868-0.887c-1.595-0.588-3.082-1.382-4.46-2.375c-0.574-0.419-1.059-0.83-1.453-1.232
		c-0.397-0.402-0.708-0.728-0.937-0.973l-0.066-0.064c-0.017-0.027-0.029-0.047-0.044-0.056c-0.015-0.005-0.029-0.017-0.042-0.03
		c-0.014-0.029-0.029-0.047-0.043-0.054s-0.029-0.019-0.044-0.031c-0.331-0.36-0.494-0.649-0.494-0.863
		c0-0.245,0.166-0.519,0.494-0.823l3.727-3.555c0.302-0.217,0.547-0.324,0.732-0.324c0.129,0,0.266,0.045,0.409,0.131
		S332.034,187.355,332.236,187.527z"/>
	<path d="M371.313,166.82c0-0.258,0.081-0.479,0.236-0.666c0.158-0.188,0.396-0.281,0.71-0.281h6.334
		c0.217,0,0.446,0.086,0.691,0.259c0.246,0.173,0.365,0.401,0.365,0.688v30.098c0,0.633-0.353,0.949-1.057,0.949h-6.334
		c-0.633,0-0.947-0.316-0.947-0.949V166.82L371.313,166.82z"/>
	<path d="M401.883,166.82c0.029-0.258,0.132-0.479,0.302-0.666c0.173-0.188,0.416-0.281,0.732-0.281h7.455
		c0.533,0,0.875,0.273,1.033,0.818l5.859,19.561l5.904-19.561c0.201-0.547,0.566-0.818,1.1-0.818h7.369
		c0.258,0,0.492,0.091,0.699,0.271c0.209,0.178,0.326,0.403,0.355,0.676c0.504,5.058,1.018,10.073,1.541,15.049
		c0.523,4.979,1.037,9.996,1.541,15.049v0.109c0,0.561-0.318,0.84-0.953,0.84h-6.096c-0.662,0-1.004-0.316-1.033-0.949
		l-1.875-16.652l-4.848,16.762c-0.029,0.145-0.133,0.314-0.313,0.517c-0.178,0.202-0.355,0.302-0.527,0.302h-5.666
		c-0.174,0-0.355-0.098-0.551-0.292c-0.191-0.192-0.297-0.368-0.311-0.526l-4.85-16.719l-1.875,16.609
		c-0.025,0.633-0.379,0.949-1.053,0.949h-6.099c-0.618,0-0.925-0.316-0.925-0.949L401.883,166.82z"/>
	<path d="M450.639,166.712c0.012-0.084,0.061-0.18,0.139-0.279s0.176-0.195,0.293-0.281c0.113-0.084,0.236-0.153,0.365-0.205
		c0.129-0.051,0.25-0.074,0.365-0.074h5.516c0.242,0,0.453,0.074,0.625,0.227c0.174,0.15,0.303,0.283,0.387,0.398l0.539,1.227
		l11.313,29.17c0.113,0.289,0.092,0.521-0.066,0.701s-0.432,0.271-0.818,0.271h-6.184c-0.33,0-0.586-0.061-0.762-0.181
		c-0.182-0.126-0.322-0.33-0.424-0.616c-0.283-0.733-0.566-1.461-0.84-2.187c-0.271-0.725-0.545-1.453-0.816-2.186h-11.441
		c-0.273,0.732-0.549,1.461-0.83,2.186c-0.281,0.726-0.555,1.453-0.828,2.187c-0.186,0.533-0.553,0.798-1.1,0.798h-6.357
		c-0.271,0-0.498-0.072-0.676-0.217c-0.18-0.143-0.213-0.357-0.098-0.645L450.639,166.712z M454.559,175.935
		c-0.273,0.732-0.545,1.524-0.828,2.37c-0.279,0.847-0.555,1.702-0.83,2.564c-0.273,0.862-0.549,1.712-0.83,2.554
		c-0.279,0.84-0.555,1.626-0.83,2.359h6.617L454.559,175.935z"/>
	<path d="M474.422,166.82c0-0.258,0.082-0.479,0.248-0.666s0.396-0.281,0.699-0.281h6.363c0.215,0,0.439,0.086,0.676,0.259
		c0.234,0.173,0.354,0.401,0.354,0.688v11.743c1.568-2.009,3.102-3.991,4.611-5.945c1.506-1.952,3.037-3.935,4.59-5.947
		c0.158-0.242,0.363-0.44,0.611-0.591c0.25-0.151,0.5-0.227,0.746-0.227h8.184c0.346,0,0.518,0.106,0.518,0.323
		c0,0.144-0.078,0.316-0.236,0.517l-10.148,13.377l11.227,16.893c0.158,0.242,0.234,0.438,0.234,0.582
		c0,0.215-0.158,0.324-0.473,0.324h-8.145c-0.244,0-0.484-0.073-0.721-0.217s-0.436-0.338-0.594-0.582
		c-0.762-1.035-1.453-2.025-2.078-2.974c-0.623-0.946-1.232-1.892-1.822-2.832c-0.588-0.939-1.182-1.892-1.787-2.855
		c-0.604-0.962-1.262-1.974-1.98-3.036l-2.736,3.145v8.4c0,0.633-0.346,0.949-1.031,0.949h-6.34c-0.645,0-0.969-0.316-0.969-0.949
		V166.82z"/>
	<path d="M507.407,166.864c0-0.302,0.084-0.542,0.248-0.72c0.164-0.181,0.396-0.271,0.699-0.271h21.373
		c0.316,0,0.561,0.094,0.732,0.281c0.174,0.185,0.258,0.437,0.258,0.753v5.326c0,0.242-0.084,0.478-0.258,0.698
		c-0.172,0.222-0.424,0.334-0.754,0.334h-13.959v5.344h10.771c0.273,0,0.5,0.064,0.68,0.191c0.18,0.128,0.27,0.346,0.27,0.648v4.651
		c0,0.202-0.08,0.396-0.234,0.581c-0.158,0.188-0.391,0.281-0.691,0.281h-10.795v5.517h14.48c0.645,0,0.969,0.329,0.969,0.988v5.414
		c0,0.144-0.059,0.272-0.174,0.388c-0.057,0.398-0.35,0.601-0.883,0.601h-21.785c-0.285,0-0.516-0.075-0.689-0.227
		c-0.172-0.151-0.258-0.386-0.258-0.702V166.864z"/>
	<g>
		<path d="M548.514,166.818c0-0.285,0.098-0.514,0.291-0.687s0.434-0.259,0.721-0.259h23.182c0.258,0,0.49,0.08,0.689,0.236
			c0.203,0.158,0.316,0.394,0.346,0.707v5.349c0,0.259-0.09,0.507-0.27,0.743c-0.178,0.235-0.434,0.355-0.766,0.355h-7.432v23.589
			c0,0.261-0.092,0.493-0.279,0.701c-0.188,0.21-0.428,0.313-0.73,0.313h-6.316c-0.244,0-0.475-0.097-0.689-0.291
			s-0.322-0.437-0.322-0.723v-23.59h-7.412c-0.287,0-0.527-0.094-0.721-0.279s-0.291-0.457-0.291-0.818V166.818z"/>
		<path d="M579.042,166.82c0.016-0.242,0.104-0.462,0.271-0.656c0.166-0.191,0.385-0.289,0.654-0.289h6.402
			c0.215,0,0.438,0.09,0.664,0.27c0.229,0.182,0.346,0.407,0.346,0.68v10.231h10.707v-10.231c0-0.258,0.09-0.482,0.27-0.67
			c0.18-0.186,0.412-0.279,0.701-0.279h6.295c0.287,0,0.539,0.072,0.752,0.215c0.215,0.143,0.322,0.374,0.322,0.691v30.14
			c0,0.316-0.094,0.555-0.277,0.71c-0.188,0.158-0.432,0.238-0.73,0.238h-6.361c-0.287,0-0.521-0.08-0.701-0.238
			c-0.18-0.155-0.27-0.394-0.27-0.71v-12.237h-10.707v12.237c0,0.302-0.098,0.535-0.291,0.7c-0.191,0.168-0.453,0.249-0.787,0.249
			h-6.334c-0.602,0-0.91-0.28-0.926-0.84V166.82z"/>
		<path d="M613.555,166.82c0-0.258,0.08-0.479,0.236-0.666c0.158-0.188,0.396-0.281,0.711-0.281h6.334
			c0.217,0,0.445,0.086,0.691,0.259c0.244,0.173,0.365,0.401,0.365,0.688v30.098c0,0.633-0.35,0.949-1.057,0.949h-6.334
			c-0.631,0-0.947-0.316-0.947-0.949V166.82L613.555,166.82z"/>
		<path d="M628.917,166.82c0-0.258,0.078-0.479,0.236-0.666c0.154-0.188,0.396-0.281,0.711-0.281h7.047
			c0.199,0,0.408,0.052,0.623,0.151c0.217,0.101,0.402,0.272,0.561,0.517c1.824,2.945,3.633,5.846,5.428,8.703
			c1.795,2.859,3.609,5.76,5.451,8.703V166.69c0.055-0.258,0.172-0.46,0.342-0.604c0.174-0.142,0.375-0.214,0.604-0.214h6.143
			c0.299,0,0.553,0.082,0.752,0.248c0.203,0.165,0.303,0.396,0.303,0.698v30.207c0,0.286-0.086,0.499-0.258,0.636
			c-0.174,0.137-0.41,0.204-0.711,0.204h-6.873c-0.188,0-0.354-0.065-0.496-0.194c-0.141-0.128-0.293-0.301-0.451-0.516
			c-1.91-3.159-3.797-6.286-5.664-9.373c-1.867-3.09-3.766-6.212-5.689-9.373v18.507c0,0.316-0.07,0.556-0.213,0.711
			c-0.145,0.158-0.404,0.237-0.777,0.237h-6.119c-0.33,0-0.57-0.09-0.721-0.27c-0.152-0.182-0.227-0.4-0.227-0.658V166.82
			L628.917,166.82z"/>
		<path d="M684.329,174.9c-0.732-0.517-1.518-0.918-2.35-1.205c-0.832-0.289-1.723-0.432-2.67-0.432
			c-1.193,0-2.283,0.227-3.275,0.676c-0.992,0.453-1.842,1.066-2.553,1.844c-0.711,0.778-1.271,1.686-1.67,2.727
			c-0.402,1.043-0.604,2.15-0.604,3.328s0.201,2.283,0.604,3.318c0.398,1.034,0.959,1.936,1.67,2.704
			c0.711,0.767,1.561,1.376,2.553,1.821s2.082,0.666,3.275,0.666c0.5,0,1-0.035,1.496-0.106c0.492-0.073,1.023-0.165,1.582-0.28
			v-5.645c0-0.273,0.08-0.498,0.238-0.68c0.158-0.18,0.395-0.27,0.711-0.27h5.859c0.217,0,0.443,0.087,0.689,0.26
			c0.246,0.17,0.367,0.402,0.367,0.689v10.426c0,0.389-0.209,0.705-0.625,0.949c-0.674,0.46-1.424,0.855-2.24,1.186
			c-0.82,0.328-1.676,0.602-2.564,0.818c-0.891,0.214-1.793,0.377-2.705,0.484c-0.91,0.106-1.797,0.16-2.66,0.16
			c-1.525,0-2.984-0.191-4.385-0.582c-1.402-0.387-2.711-0.939-3.932-1.657c-1.223-0.718-2.332-1.575-3.33-2.575
			c-0.998-0.998-1.857-2.104-2.572-3.317c-0.721-1.214-1.271-2.52-1.66-3.921c-0.387-1.401-0.582-2.862-0.582-4.384
			c0-1.524,0.195-2.985,0.582-4.386c0.389-1.401,0.939-2.717,1.66-3.943c0.715-1.228,1.574-2.344,2.572-3.35s2.107-1.864,3.33-2.575
			c1.221-0.71,2.529-1.263,3.932-1.657c1.4-0.396,2.859-0.594,4.385-0.594c1.723,0,3.35,0.24,4.877,0.723
			c1.531,0.479,2.971,1.172,4.322,2.078c0.242,0.145,0.43,0.334,0.559,0.57c0.129,0.237,0.1,0.506-0.084,0.807l-3.492,5.041
			c-0.188,0.232-0.373,0.387-0.559,0.463C684.895,175.162,684.645,175.103,684.329,174.9z"/>
		<path d="M700.53,187.527c0.244,0.199,0.557,0.469,0.938,0.804c0.381,0.339,0.814,0.672,1.303,1.005
			c0.732,0.488,1.459,0.869,2.176,1.141c0.719,0.273,1.473,0.41,2.262,0.41c0.732,0,1.346-0.084,1.844-0.246
			c0.496-0.166,0.885-0.385,1.172-0.658c0.289-0.271,0.492-0.588,0.617-0.946c0.121-0.36,0.182-0.74,0.182-1.142
			c0-0.444-0.17-0.842-0.506-1.195c-0.338-0.351-0.752-0.662-1.238-0.936c-0.49-0.271-0.998-0.506-1.529-0.7
			c-0.533-0.192-0.994-0.355-1.381-0.485c-1.723-0.601-3.23-1.252-4.523-1.947c-1.291-0.698-2.369-1.473-3.232-2.325
			c-0.863-0.854-1.508-1.794-1.941-2.819c-0.432-1.027-0.646-2.172-0.646-3.436c0-1.333,0.271-2.547,0.809-3.637
			c0.539-1.091,1.309-2.025,2.307-2.799s2.199-1.374,3.607-1.797c1.408-0.422,2.984-0.635,4.719-0.635
			c1.305,0,2.561,0.146,3.762,0.44c1.197,0.295,2.381,0.765,3.545,1.412c0.486,0.287,0.951,0.585,1.389,0.895
			c0.436,0.31,0.82,0.604,1.152,0.894c0.33,0.288,0.594,0.563,0.785,0.82c0.195,0.258,0.293,0.482,0.293,0.666
			c0,0.188-0.049,0.359-0.141,0.518c-0.094,0.16-0.236,0.338-0.42,0.54l-3.299,3.509c-0.242,0.246-0.486,0.367-0.729,0.367
			c-0.203,0-0.385-0.059-0.551-0.172c-0.164-0.115-0.348-0.259-0.551-0.432l-0.193-0.173c-0.285-0.243-0.605-0.494-0.957-0.755
			c-0.354-0.258-0.73-0.491-1.133-0.698c-0.4-0.21-0.824-0.381-1.27-0.519c-0.447-0.137-0.898-0.204-1.359-0.204
			c-0.473,0-0.918,0.04-1.334,0.119c-0.418,0.079-0.783,0.204-1.1,0.377s-0.568,0.399-0.756,0.679
			c-0.182,0.281-0.279,0.621-0.279,1.023c0,0.401,0.102,0.75,0.303,1.044s0.504,0.567,0.904,0.82c0.402,0.251,0.9,0.487,1.498,0.711
			c0.596,0.222,1.289,0.462,2.078,0.72c1.521,0.504,2.926,1.031,4.211,1.584s2.396,1.205,3.33,1.96
			c0.934,0.753,1.664,1.655,2.188,2.704s0.785,2.318,0.785,3.813c0,1.581-0.324,3.014-0.967,4.299
			c-0.648,1.285-1.533,2.381-2.66,3.287c-1.127,0.904-2.457,1.604-3.975,2.102c-1.523,0.492-3.16,0.742-4.912,0.742
			c-1.654,0-3.275-0.297-4.869-0.887c-1.594-0.588-3.082-1.382-4.459-2.375c-0.576-0.419-1.061-0.83-1.457-1.232
			c-0.395-0.402-0.705-0.728-0.938-0.973l-0.063-0.064c-0.014-0.027-0.029-0.047-0.043-0.056c-0.016-0.005-0.029-0.017-0.045-0.03
			c-0.012-0.029-0.027-0.047-0.041-0.054c-0.016-0.007-0.029-0.019-0.045-0.031c-0.33-0.36-0.49-0.649-0.49-0.863
			c0-0.245,0.162-0.519,0.49-0.823l3.729-3.555c0.301-0.217,0.545-0.324,0.732-0.324c0.131,0,0.266,0.045,0.408,0.131
			S700.329,187.355,700.53,187.527z"/>
		<path d="M724.229,191.663c0-0.287,0.08-0.519,0.238-0.69c0.158-0.173,0.395-0.261,0.711-0.261h5.705
			c0.244,0,0.471,0.088,0.68,0.261c0.209,0.172,0.314,0.401,0.314,0.69v5.214c0,0.259-0.084,0.487-0.248,0.688
			c-0.166,0.203-0.414,0.303-0.746,0.303h-5.705c-0.633,0-0.949-0.332-0.949-0.991V191.663L724.229,191.663z"/>
	</g>
</g>
</svg>
