<?xml version="1.0" encoding="iso-8859-1"?>
<!-- Generator: Adobe Illustrator 16.0.0, SVG Export Plug-In . SVG Version: 6.00 Build 0)  -->
<!DOCTYPE svg PUBLIC "-//W3C//DTD SVG 1.1//EN" "http://www.w3.org/Graphics/SVG/1.1/DTD/svg11.dtd">
<svg version="1.1" id="Layer_1" xmlns="http://www.w3.org/2000/svg" xmlns:xlink="http://www.w3.org/1999/xlink" x="0px" y="0px"
	 width="42.271px" height="69.186px" viewBox="0 0 42.271 69.186" style="enable-background:new 0 0 42.271 69.186;"
	 xml:space="preserve">
<g id="_x38_">
	<polygon style="fill:#CDF1FF;stroke:#231F20;stroke-width:1.3644;stroke-linejoin:round;stroke-miterlimit:10;" points="
		14.049,17.139 14.153,21.545 27.262,21.248 27.166,16.842 	"/>
	<path style="fill:#FFFFFF;stroke:#231F20;stroke-width:1.383;stroke-linejoin:round;stroke-miterlimit:10;" d="M27.275,21.69
		l-13.112,0.29c0,0-3.686,6.621-3.594,10.718c0.092,4.099,0.363,16.281,0.363,16.281s-0.013,3.431,3.902,3.344l13.116-0.294
		c3.919-0.084,3.752-3.516,3.752-3.516s-0.271-12.18-0.359-16.28C31.25,28.137,27.275,21.69,27.275,21.69l-13.112,0.29"/>
	<path style="fill:#CDF1FF;stroke:#231F20;stroke-width:1.383;stroke-linejoin:round;stroke-miterlimit:10;" d="M25.155,34.492
		c0.05,2.292-1.762,4.193-4.059,4.246c-2.294,0.054-4.197-1.765-4.246-4.056c-0.05-2.298,1.767-4.2,4.063-4.247
		C23.205,30.383,25.107,32.2,25.155,34.492z"/>
	
		<line style="fill:none;stroke:#231F20;stroke-width:1.383;stroke-linejoin:round;stroke-miterlimit:10;" x1="25.155" y1="34.492" x2="31.389" y2="34.359"/>
	
		<line style="fill:none;stroke:#231F20;stroke-width:1.383;stroke-linejoin:round;stroke-miterlimit:10;" x1="16.85" y1="34.682" x2="10.617" y2="34.816"/>
</g>
<g id="Layer_1_1_">
</g>
</svg>
