<?xml version="1.0" encoding="iso-8859-1"?>
<!-- Generator: Adobe Illustrator 16.0.0, SVG Export Plug-In . SVG Version: 6.00 Build 0)  -->
<!DOCTYPE svg PUBLIC "-//W3C//DTD SVG 1.1//EN" "http://www.w3.org/Graphics/SVG/1.1/DTD/svg11.dtd">
<svg version="1.1" xmlns="http://www.w3.org/2000/svg" xmlns:xlink="http://www.w3.org/1999/xlink" x="0px" y="0px"
	 width="55.057px" height="66.701px" viewBox="0 0 55.057 66.701" style="enable-background:new 0 0 55.057 66.701;"
	 xml:space="preserve">
<g id="_x31_">
	<path style="fill:none;stroke:#88C665;stroke-width:2.0706;stroke-linecap:round;stroke-linejoin:round;stroke-miterlimit:10;" d="
		M52.926,32.524c-4.079,2.677-3.954,2.041-7.293,0h0.041c-4.077,2.677-3.952,2.041-7.291,0h0.041
		c-4.078,2.677-3.953,2.039-7.291,0.001l0.041-0.001c-4.078,2.677-3.955,2.039-7.291,0h0.041c-4.078,2.675-3.955,2.041-7.291,0h0.04
		c-4.078,2.675-3.954,2.041-7.29,0l0.042,0.001c-4.079,2.674-3.956,2.038-7.292-0.001"/>
	
		<line style="fill:none;stroke:#ED2424;stroke-width:2.0706;stroke-linecap:round;stroke-linejoin:round;stroke-miterlimit:10;" x1="2.134" y1="37.689" x2="52.926" y2="37.688"/>
	<path style="fill:none;stroke:#D59D29;stroke-width:2.1025;stroke-miterlimit:10;" d="M53.714,60.775l0.001-4.334l-52.37,0.002
		l-0.002,2.324l0.002,3.061c-0.001,2.109,1.71,3.82,3.822,3.822h44.727c2.108,0,3.821-1.713,3.821-3.824V58.77L53.714,60.775z"/>
	<line style="fill:none;stroke:#231F20;stroke-width:2.1025;stroke-miterlimit:10;" x1="24.98" y1="13.994" x2="24.98" y2="1.051"/>
	
		<rect x="24.98" y="1.051" style="fill:none;stroke:#231F20;stroke-width:2.1025;stroke-miterlimit:10;" width="11.657" height="6.472"/>
	<path style="fill:none;stroke:#735823;stroke-width:2.4453;stroke-linecap:round;stroke-linejoin:round;stroke-miterlimit:10;" d="
		M33.894,51.633H4.194c-1.642,0-2.972-1.729-2.972-3.861c0.001-2.131,1.33-3.861,2.971-3.861h46.672c1.639,0,2.97,1.73,2.969,3.861
		c0,2.133-1.33,3.861-2.969,3.861H39.34H33.894z"/>
	
		<polygon style="fill:#FDE840;stroke:#FDE840;stroke-width:2.4453;stroke-linecap:round;stroke-linejoin:round;stroke-miterlimit:10;" points="
		26.938,41.791 36.34,52.604 45.74,41.793 	"/>
	
		<line style="fill:none;stroke:#FDE840;stroke-width:2.4453;stroke-linecap:round;stroke-linejoin:round;stroke-miterlimit:10;" x1="3.438" y1="41.793" x2="51.621" y2="41.793"/>
	<path style="fill:none;stroke:#D59D29;stroke-width:2.1025;stroke-miterlimit:10;" d="M27.53,14.935
		C1.725,14.935,1.344,28.57,1.344,28.57h52.371C53.715,28.57,53.332,14.935,27.53,14.935z"/>
</g>
<g id="Layer_1">
</g>
</svg>
