<?xml version="1.0" encoding="iso-8859-1"?>
<!-- Generator: Adobe Illustrator 16.0.0, SVG Export Plug-In . SVG Version: 6.00 Build 0)  -->
<!DOCTYPE svg PUBLIC "-//W3C//DTD SVG 1.1//EN" "http://www.w3.org/Graphics/SVG/1.1/DTD/svg11.dtd">
<svg version="1.1" xmlns="http://www.w3.org/2000/svg" xmlns:xlink="http://www.w3.org/1999/xlink" x="0px" y="0px"
	 width="81.852px" height="51.322px" viewBox="0 0 81.852 51.322" style="enable-background:new 0 0 81.852 51.322;"
	 xml:space="preserve">
<g id="_x39_">
	<polygon style="fill:#DBDADA;" points="0,41.448 0.002,46.98 0.806,47.682 0.807,35.217 0,35.916 	"/>
	<path style="fill:#DBDADA;" d="M81.047,35.215l0.002-1.364l-0.002-6.636V1.871c0-1.028-0.842-1.87-1.869-1.871L2.674,0.003
		c-1.027-0.002-1.868,0.84-1.868,1.871v19.319v12.657v12.506l-0.002,3.039c0.002,1.028,0.843,1.869,1.87,1.869l76.504,0.001
		c1.027-0.001,1.868-0.844,1.869-1.871l-0.001-1.715l0.805-0.701l0.001-5.532l-0.001-5.531L81.047,35.215z"/>
	<path style="fill:#7FD1E9;" d="M81.047,37.709l0.002-3.858L81.047,1.871c0-1.028-0.842-1.87-1.869-1.871L2.674,0.003
		c-1.027-0.002-1.868,0.84-1.868,1.871v31.977v3.86L81.047,37.709z"/>
	<path style="fill:#54453A;" d="M41.781,23.358c0.002,10.134-8.215,18.347-18.347,18.347S5.088,33.493,5.088,23.357
		C5.087,13.224,13.302,5.011,23.435,5.012C33.566,5.009,41.783,13.224,41.781,23.358z"/>
	<path style="fill:#A4A7A9;" d="M32.316,23.358c-0.002,4.905-3.977,8.88-8.88,8.883c-4.907,0-8.885-3.978-8.883-8.883
		c0-4.905,3.976-8.88,8.883-8.88C28.34,14.479,32.317,18.453,32.316,23.358z"/>
	<path style="fill:#FFFFFF;" d="M27.291,23.36c0,2.128-1.727,3.855-3.856,3.855c-2.131-0.003-3.855-1.728-3.857-3.855
		c0.002-2.132,1.727-3.854,3.859-3.857C25.566,19.503,27.292,21.229,27.291,23.36z"/>
	<circle style="fill:#A4A7A9;" cx="58.492" cy="23.358" r="8.881"/>
	<circle style="fill:#FFFFFF;" cx="58.492" cy="23.358" r="3.856"/>
	<g>
		<path style="fill:none;stroke:#231F20;stroke-width:0.4796;stroke-miterlimit:10;" d="M13.911,51.265l2.771-11.3
			c0.084-0.342,0.44-0.621,0.792-0.621h24.271c0.352,0,0.928,0,1.279,0h21.356c0.352,0,0.708,0.279,0.792,0.621l2.767,11.301"/>
	</g>
	<rect x="3.648" y="4.055" style="fill:#FFFFFF;" width="74.554" height="10.423"/>
	<rect x="3.648" y="32.494" style="fill:#FFFFFF;" width="74.556" height="5.212"/>
	<path style="fill:#5E5F61;" d="M3.706,14.228l0.002,18.382l74.554-0.001V14.228H3.706z M67.941,29.765l-54.029-0.002l-0.001-12.466
		h54.031L67.941,29.765z"/>
	<path style="fill:#FFFFFF;" d="M22.115,48.402c0,1.126-0.916,2.043-2.043,2.043c-1.132,0-2.047-0.917-2.047-2.043
		c0-1.131,0.915-2.046,2.047-2.048C21.199,46.354,22.115,47.271,22.115,48.402z"/>
	<path style="fill:#FFFFFF;" d="M63.825,48.4c-0.001,1.128-0.915,2.045-2.047,2.043c-1.128,0.002-2.045-0.915-2.043-2.046
		c-0.002-1.126,0.915-2.043,2.041-2.043C62.907,46.354,63.824,47.271,63.825,48.4z"/>
	<polygon style="fill:#FFFFFF;" points="27.545,49.32 24.271,49.317 24.272,46.048 27.545,46.045 	"/>
	<rect x="54.308" y="46.048" style="fill:#FFFFFF;" width="3.271" height="3.271"/>
	<path style="fill:#A4A7A9;" d="M42.27,44.392c-0.001,0.744-0.603,1.347-1.344,1.347c-0.742-0.002-1.345-0.603-1.345-1.348
		c0-0.741,0.603-1.341,1.347-1.341C41.669,43.05,42.269,43.652,42.27,44.392z"/>
</g>
<g id="Layer_1">
</g>
</svg>
