<?xml version="1.0" encoding="iso-8859-1"?>
<!-- Generator: Adobe Illustrator 16.0.0, SVG Export Plug-In . SVG Version: 6.00 Build 0)  -->
<!DOCTYPE svg PUBLIC "-//W3C//DTD SVG 1.1//EN" "http://www.w3.org/Graphics/SVG/1.1/DTD/svg11.dtd">
<svg version="1.1" id="Layer_1" xmlns="http://www.w3.org/2000/svg" xmlns:xlink="http://www.w3.org/1999/xlink" x="0px" y="0px"
	 width="77.553px" height="71.454px" viewBox="0 0 77.553 71.454" style="enable-background:new 0 0 77.553 71.454;"
	 xml:space="preserve">
<g id="_x36_">
	<path style="fill:#A08405;stroke:#231F20;stroke-width:2;stroke-miterlimit:1;" d="M0.198,64.495c0,0,25.784,10.629,52.798,0
		C52.996,64.495,27.401,52.693,0.198,64.495z"/>
	<circle style="fill:#FFFFFF;stroke:#231F20;stroke-width:2;stroke-miterlimit:10;" cx="26.336" cy="63.023" r="4.785"/>
	<path style="fill:#FDE45D;stroke:#231F20;stroke-width:2;stroke-miterlimit:10;" d="M26.336,55.167L3.943,55.728l2.355-3.626
		c0,0,3.59-4.188,4.038-9.271c0.449-5.086,0.599-5.981,2.244-14.355c1.645-8.375,13.757-11.963,13.757-11.963
		S38.451,20.1,40.095,28.475c1.646,8.374,1.794,9.271,2.243,14.355c0.448,5.084,4.037,9.271,4.037,9.271l2.354,3.626L26.336,55.167z
		"/>
	<path style="fill:#FDE45D;stroke:#231F20;stroke-width:2;stroke-miterlimit:10;" d="M26.336,62.127
		C9.14,62.021,0.579,63.553,0.579,63.553c0.672-8.102,5.719-10.555,5.719-10.555c3.59-1.943,20.038-1.869,20.038-1.869
		s16.45-0.074,20.039,1.869c0,0,5.048,2.453,5.721,10.555C52.096,63.553,43.534,62.021,26.336,62.127z"/>
	<path style="fill:#A08405;stroke:#231F20;stroke-width:2;stroke-miterlimit:1;" d="M30.216,70.959c0,0,27.565-1.518,46.972-22.701
		C77.188,48.258,49.283,48.635,30.216,70.959z"/>
	<circle style="fill:#FFFFFF;stroke:#231F20;stroke-width:2;stroke-miterlimit:10;" cx="53.267" cy="58.674" r="4.784"/>
	<path style="fill:#FDE45D;stroke:#231F20;stroke-width:2;stroke-miterlimit:10;" d="M49.848,51.601L29.929,61.85l0.543-4.289
		c0,0,1.411-5.332-0.397-10.105c-1.811-4.771-2.065-5.646-4.229-13.9c-2.164-8.256,7.181-16.758,7.181-16.758
		s12.468-2.039,17.594,4.786c5.126,6.824,5.648,7.566,8.267,11.948c2.617,4.383,7.67,6.59,7.67,6.59l3.697,2.24L49.848,51.601z"/>
	<path style="fill:#FDE45D;stroke:#231F20;stroke-width:2;stroke-miterlimit:10;" d="M52.877,57.868
		C37.347,65.254,30.305,70.36,30.305,70.36c-2.919-7.588,0.558-11.992,0.558-11.992c2.387-3.312,17.229-10.402,17.229-10.402
		s14.778-7.225,18.854-7.036c0,0,5.613,0.013,9.743,7.015C76.688,47.943,68.314,50.29,52.877,57.868z"/>
	<path style="fill:#F390BB;stroke:#231F20;stroke-width:2;stroke-miterlimit:7;" d="M24.56,13.537c0,0-5.129-6.037-14.523-6.394
		C0.642,6.789-3.326,10.396,8.022,16.23c0,0-5.695,14.934,2.235,10.502s14.915-7.608,14.915-7.608"/>
	<path style="fill:#F390BB;stroke:#231F20;stroke-width:2;stroke-miterlimit:7;" d="M31.632,12.127c0,0,12.538-12.582,18.298-11.569
		c5.763,1.014-2.571,13.55-2.571,13.55s5.354,4.071,6.82,7.87c0,0,0.925,4.418-8.159,2.804c-9.081-1.613-14.431-7.872-14.431-7.872"
		/>
	<path style="fill:#F390BB;stroke:#231F20;stroke-width:2;stroke-miterlimit:1;" d="M23.971,11.521c0,0-2.058,4.928,0.766,9.824
		c0,0,6.243,1.024,9.131-0.713c0,0,1.174-8.813-0.767-9.824C33.101,10.809,29.035,7.872,23.971,11.521z"/>
</g>
<g id="Layer_1_1_">
</g>
</svg>
