<?xml version="1.0" encoding="iso-8859-1"?>
<!-- Generator: Adobe Illustrator 16.0.0, SVG Export Plug-In . SVG Version: 6.00 Build 0)  -->
<!DOCTYPE svg PUBLIC "-//W3C//DTD SVG 1.1//EN" "http://www.w3.org/Graphics/SVG/1.1/DTD/svg11.dtd">
<svg version="1.1" xmlns="http://www.w3.org/2000/svg" xmlns:xlink="http://www.w3.org/1999/xlink" x="0px" y="0px"
	 width="52.215px" height="48.102px" viewBox="0 0 52.215 48.102" style="enable-background:new 0 0 52.215 48.102;"
	 xml:space="preserve">
<g id="_x35_">
	<circle style="fill:none;stroke:#231F20;stroke-width:2.5547;stroke-miterlimit:1;" cx="5.466" cy="26.266" r="4.189"/>
	<circle style="fill:none;stroke:#231F20;stroke-width:2.5547;stroke-miterlimit:1;" cx="45.771" cy="26.266" r="4.188"/>
	<path style="fill:#FFE3B7;" d="M43.515,16.44c1.618,2.928,2.54,6.294,2.54,9.876c0,11.287-9.15,20.437-20.436,20.437
		c-11.287,0-20.437-9.149-20.437-20.437c0-2.73,0.536-5.337,1.508-7.718"/>
	<path style="fill:#F9B7A7;" d="M45.798,29.56c-0.333-0.032-0.67-0.05-1.011-0.05c-5.644,0-10.219,4.574-10.219,10.218
		c0,1.59,0.363,3.095,1.012,4.436C40.93,41.171,44.796,35.843,45.798,29.56z"/>
	<path style="fill:#F9B7A7;" d="M6.45,29.51c-0.341,0-0.678,0.018-1.011,0.05c1.002,6.283,4.869,11.611,10.219,14.604
		c0.647-1.341,1.01-2.846,1.01-4.436C16.668,34.084,12.094,29.51,6.45,29.51z"/>
	<path style="fill:#19130A;stroke:#231F20;stroke-width:2.5547;stroke-miterlimit:1;" d="M6.691,18.599l36.823-2.158
		c2.847-1.93,6.312-9.485,7.447-15.163c-24.203,0-22.696,3.424-37.706,6.576C5.734,11.26,6.691,18.599,6.691,18.599z"/>
	<path style="fill:#231F20;" d="M25.619,48.102c-12.012,0-21.785-9.772-21.785-21.785c0-2.846,0.541-5.614,1.608-8.228l2.497,1.019
		c-0.935,2.289-1.408,4.714-1.408,7.209c0,10.525,8.563,19.088,19.088,19.088c10.525,0,19.088-8.563,19.088-19.088
		c0-3.228-0.82-6.418-2.373-9.223l2.36-1.306c1.772,3.205,2.709,6.846,2.709,10.528C47.403,38.329,37.631,48.102,25.619,48.102z"/>
</g>
<g id="Layer_1">
</g>
</svg>
