<?xml version="1.0" encoding="iso-8859-1"?>
<!-- Generator: Adobe Illustrator 16.0.0, SVG Export Plug-In . SVG Version: 6.00 Build 0)  -->
<!DOCTYPE svg PUBLIC "-//W3C//DTD SVG 1.1//EN" "http://www.w3.org/Graphics/SVG/1.1/DTD/svg11.dtd">
<svg version="1.1" id="Layer_1" xmlns="http://www.w3.org/2000/svg" xmlns:xlink="http://www.w3.org/1999/xlink" x="0px" y="0px"
	 width="57.387px" height="82.109px" viewBox="0 0 57.387 82.109" style="enable-background:new 0 0 57.387 82.109;"
	 xml:space="preserve">
<g id="_x31_0">
	<path style="fill:#231F20;" d="M32.434,60.825c-0.343,2.796-2.885,5.064-5.677,5.064c-2.793,0-4.777-2.269-4.435-5.064
		c0.344-2.796,2.888-5.067,5.678-5.067C30.794,55.758,32.78,58.029,32.434,60.825z"/>
	<polyline style="fill:none;stroke:#C0C1C3;stroke-width:1.9861;stroke-miterlimit:10;" points="27.417,45.528 27.417,60.825 
		44.532,67.392 	"/>
	
		<line style="fill:none;stroke:#C0C1C3;stroke-width:1.9861;stroke-miterlimit:10;" x1="37.645" y1="47.154" x2="46.259" y2="72.462"/>
	
		<line style="fill:none;stroke:#C0C1C3;stroke-width:1.9861;stroke-miterlimit:10;" x1="22.299" y1="46.36" x2="14.359" y2="69.801"/>
	<path style="fill:#231F20;" d="M48.144,29.126c0,11.447-9.28,20.725-20.727,20.725c-11.448,0-20.726-9.279-20.726-20.725
		c0-11.451,9.277-15.687,20.726-15.687C38.864,13.44,48.144,17.676,48.144,29.126z"/>
	<path style="fill:none;stroke:#C0C1C3;stroke-width:0.3528;stroke-miterlimit:10;" d="M6.692,27.408c0,0,4.173,4.956,20.688,4.956
		c16.514,0,20.689-4.956,20.689-4.956"/>
	<path style="fill:#C0C1C3;" d="M32.115,13.939c0,0.613-2.103,1.107-4.697,1.107s-4.695-0.494-4.695-1.107
		c0-0.608,2.101-1.102,4.695-1.102S32.115,13.331,32.115,13.939z"/>
	<path style="fill:none;stroke:#C0C1C3;stroke-width:0.9931;stroke-miterlimit:10;" d="M23.569,13.742l-0.781-3.017
		c0,0,4.528-1.914,9.255,0l-0.777,3.017"/>
	<path style="fill:#231F20;" d="M50.83,67.392c-0.344,2.803-2.886,5.069-5.678,5.069c-2.79,0-4.777-2.269-4.433-5.069
		c0.344-2.798,2.885-5.066,5.679-5.066C49.19,62.326,51.173,64.594,50.83,67.392z"/>
	
		<line style="fill:none;stroke:#231F20;stroke-width:1.9861;stroke-miterlimit:10;" x1="13.732" y1="71.659" x2="14.359" y2="69.801"/>
</g>
<g id="Layer_1_1_">
</g>
</svg>
