<?xml version="1.0" encoding="iso-8859-1"?>
<!-- Generator: Adobe Illustrator 16.0.0, SVG Export Plug-In . SVG Version: 6.00 Build 0)  -->
<!DOCTYPE svg PUBLIC "-//W3C//DTD SVG 1.1//EN" "http://www.w3.org/Graphics/SVG/1.1/DTD/svg11.dtd">
<svg version="1.1" xmlns="http://www.w3.org/2000/svg" xmlns:xlink="http://www.w3.org/1999/xlink" x="0px" y="0px"
	 width="58.113px" height="55.408px" viewBox="0 0 58.113 55.408" style="enable-background:new 0 0 58.113 55.408;"
	 xml:space="preserve">
<g id="_x37_">
	<path style="fill:#EC2224;stroke:#BC191A;stroke-width:2.644;stroke-miterlimit:10;" d="M56.615,16.608l-0.02-0.003
		c0.211-1.43,0.02-2.935-0.636-4.343c-0.853-1.832-2.343-3.162-4.079-3.862l1.862-4.693l-2.876,2.066l-4.136-1.704l1.972,3.772
		c-0.98,0.04-1.971,0.269-2.916,0.709c-1.857,0.864-3.205,2.378-3.898,4.146l-0.003-0.001c-3.841,9.59-11.2,17.795-21.306,22.497
		c-2.119,0.986-4.278,1.781-6.459,2.391l0.008,0.027c-0.4,0.112-0.797,0.257-1.187,0.44c-3.175,1.477-4.853,4.852-4.326,8.146
		L4.164,45.3l2.546,2.462l-0.938,4.374l3.931-3.057c1.493,2.369,4.135,3.694,6.839,3.564l0.002,0.012
		c5.439-0.2,10.929-1.469,16.174-3.908C46.082,42.525,54.643,30.182,56.615,16.608z"/>
</g>
<g id="Layer_1">
</g>
</svg>
