<?xml version="1.0" encoding="iso-8859-1"?>
<!-- Generator: Adobe Illustrator 16.0.0, SVG Export Plug-In . SVG Version: 6.00 Build 0)  -->
<!DOCTYPE svg PUBLIC "-//W3C//DTD SVG 1.1//EN" "http://www.w3.org/Graphics/SVG/1.1/DTD/svg11.dtd">
<svg version="1.1" xmlns="http://www.w3.org/2000/svg" xmlns:xlink="http://www.w3.org/1999/xlink" x="0px" y="0px"
	 width="69.011px" height="54.313px" viewBox="0 0 69.011 54.313" style="enable-background:new 0 0 69.011 54.313;"
	 xml:space="preserve">
<g id="_x33_">
	<path style="fill:#E6E7E8;" d="M0.619,17.554c-0.547,3.391-0.847,20-0.408,25.743c0.437,5.744,1.963,10.529,5.44,10.979
		c3.477,0.451,5.194-3.31,5.759-11.321c0.564-8.015,1.657-9.936,1.657-9.936l0.245-0.17"/>
	<path style="fill:#E6E7E8;" d="M65.246,13.387c0.978,3.29,3.407,19.723,3.71,25.475c0.305,5.753-0.593,10.694-3.984,11.588
		c-3.389,0.895-5.577-2.615-7.164-10.488c-1.591-7.873-2.921-9.638-2.921-9.638l-2.172-7.474"/>
	<path style="fill:#E6E7E8;" d="M25.459,23.487c0,0,1.663-0.88,3.639-0.738c1.974,0.144,1.822,0.387,4.362,0.222l-0.089,0.007
		c2.542-0.164,2.358-0.384,4.298-0.779c1.94-0.396,3.704,0.263,3.704,0.263l3.084-2.121l-4.1-4.604l-10.43-0.286l-6.938,7.6
		L25.459,23.487z"/>
	<path style="fill:#E8E8E9;" d="M33.277,20.114c-4.561,0.294-8.55,2.289-8.55,2.289L9.997,6.303c0,0,8.004-5.279,21.989-6.182
		l-0.088,0.005c13.984-0.9,22.6,3.307,22.6,3.307L41.96,21.291c0,0-4.213-1.464-8.772-1.171"/>
	<path style="fill:#E8E8E9;" d="M57.886,25.876c0,0-3.013,3.544-2.999,4.447c0,0-1.199,1.444-1.461,2.993
		c-0.26,1.547-2.459,7.488-8.949,7.035c-6.489-0.451-8.969-7.684-7.243-12.326"/>
	<path style="fill:#FFFFFF;" d="M65.336,14.275C64.924,7.875,59.399,3.02,53,3.434c-6.402,0.412-11.256,5.936-10.842,12.337
		c0.04,0.613,0.124,1.212,0.255,1.794l0,0c0,0,0.646,4.042-2.486,6.481c-1.976,1.565-3.177,4.043-3.003,6.749
		c0.282,4.383,4.064,7.706,8.445,7.424c3.927-0.253,7.002-3.316,7.397-7.102c0,0,0.7-3.642,3.668-4.795l0,0
		C61.847,25.041,65.706,20.012,65.336,14.275z"/>
	<path style="fill:#E8E8E9;" d="M9.52,28.996c0,0,3.444,3.129,3.548,4.023c0,0,1.375,1.278,1.832,2.781s3.404,7.11,9.781,5.828
		c6.376-1.281,7.905-8.771,5.598-13.156"/>
	<path style="fill:#FFFFFF;" d="M0.643,18.449C0.23,12.048,5.085,6.525,11.484,6.111c6.401-0.412,11.924,4.441,12.336,10.842
		c0.041,0.615,0.031,1.219-0.022,1.813l0.001-0.001c0,0-0.122,4.093,3.297,6.108c2.161,1.299,3.673,3.602,3.847,6.309
		c0.281,4.383-3.041,8.164-7.425,8.446c-3.925,0.254-7.368-2.388-8.246-6.093c0,0-1.162-3.52-4.253-4.284l0,0
		C5.487,28.678,1.013,24.185,0.643,18.449z"/>
	<circle style="fill:#5DC5C5;" cx="53.357" cy="14.503" r="3.968"/>
	<path style="fill:#DEDCE8;" d="M61.539,9.998L61.539,9.998C61.234,9.471,60.649,9.135,60,9.176c-0.91,0.06-1.603,0.845-1.543,1.755
		c0.019,0.295,0.115,0.567,0.266,0.799c0.008,0.009,0.861,1.452,0.82,2.452c-0.028,0.105-0.057,0.479-0.054,0.535
		c0.059,0.911,0.847,1.603,1.757,1.544c0.772-0.05,1.387-0.622,1.519-1.351l0.051,0.007C63.361,11.86,61.539,9.998,61.539,9.998z"/>
	<path style="fill:#DDDBE5;" d="M48.291,7.209L48.291,7.209c-0.505,0.343-0.798,0.951-0.706,1.596
		c0.126,0.904,0.963,1.534,1.866,1.406c0.294-0.04,0.556-0.158,0.775-0.325c0.008-0.006,1.384-0.966,2.383-1.002
		c0.109,0.021,0.481,0.021,0.54,0.016c0.904-0.128,1.535-0.964,1.407-1.868c-0.108-0.765-0.726-1.335-1.462-1.413l0.003-0.05
		C50.01,5.251,48.291,7.209,48.291,7.209z"/>
	<circle style="fill:#ED2335;" cx="46.12" cy="19.019" r="2.533"/>
	<polygon style="fill:#FBD533;" points="44.569,24.569 48.607,25.814 50.582,29.549 49.338,33.587 45.602,35.563 41.564,34.317 
		39.588,30.583 40.834,26.545 	"/>
	<polygon style="fill:#D3CDDB;" points="12.242,11.626 16.279,12.87 18.254,16.607 17.011,20.644 13.275,22.619 9.236,21.374 
		7.262,17.64 8.506,13.602 	"/>
	<circle style="fill:none;stroke:#D2B42D;stroke-width:0.3168;stroke-miterlimit:10;" cx="45.086" cy="30.066" r="2.654"/>
	<circle style="fill:#C0BBC9;" cx="12.722" cy="16.562" r="3.89"/>
	<circle style="fill:none;stroke:#D3CDDB;stroke-width:0.2249;stroke-miterlimit:10;" cx="12.722" cy="16.561" r="3.171"/>
	<circle style="fill:none;stroke:#D3CDDB;stroke-width:0.2249;stroke-miterlimit:10;" cx="12.722" cy="16.56" r="2.426"/>
	<circle style="fill:none;stroke:#D3CDDB;stroke-width:0.2249;stroke-miterlimit:10;" cx="12.723" cy="16.561" r="1.663"/>
	<circle style="fill:#D3CDDB;" cx="33.069" cy="16.914" r="1.709"/>
	<g>
		<path style="fill:#D3CDDB;" d="M27.072,30.223c-0.015-0.223-0.208-0.393-0.43-0.378l-2.199,0.142
			c-0.222,0.015-0.416-0.155-0.43-0.378l-0.141-2.198c-0.014-0.222-0.208-0.392-0.43-0.378l-1.977,0.127
			c-0.222,0.014-0.392,0.208-0.378,0.43l0.142,2.199c0.014,0.223-0.156,0.416-0.378,0.431l-2.198,0.142
			c-0.222,0.015-0.392,0.208-0.378,0.431l0.127,1.975c0.014,0.223,0.208,0.393,0.43,0.378l2.201-0.143
			c0.222-0.015,0.416,0.155,0.43,0.378l0.142,2.199c0.014,0.223,0.208,0.393,0.43,0.378l1.975-0.128
			c0.222-0.015,0.392-0.208,0.378-0.431l-0.142-2.198c-0.014-0.223,0.156-0.416,0.378-0.431l2.199-0.141
			c0.222-0.015,0.392-0.208,0.377-0.431L27.072,30.223z"/>
	</g>
	<g>
		<path style="fill:#C0BBC9;" d="M22.935,29.063c-0.193,0.013-0.51,0.033-0.704,0.045c-0.194,0.013-0.283-0.146-0.198-0.352
			l0.302-0.732c0.085-0.206,0.245-0.216,0.355-0.022l0.395,0.688C23.196,28.882,23.128,29.051,22.935,29.063z"/>
	</g>
	<g>
		<path style="fill:#C0BBC9;" d="M22.519,33.564c0.193-0.013,0.51-0.033,0.703-0.046s0.282,0.146,0.197,0.352l-0.302,0.732
			c-0.085,0.206-0.245,0.216-0.355,0.022l-0.393-0.687C22.257,33.745,22.325,33.576,22.519,33.564z"/>
	</g>
	<g>
		<path style="fill:#C0BBC9;" d="M24.978,31.522c-0.012-0.192-0.033-0.509-0.045-0.702c-0.012-0.194,0.146-0.283,0.352-0.198
			l0.732,0.302c0.206,0.085,0.216,0.245,0.022,0.355l-0.688,0.393C25.158,31.782,24.99,31.715,24.978,31.522z"/>
	</g>
	<g>
		<path style="fill:#C0BBC9;" d="M20.476,31.107c0.013,0.192,0.034,0.509,0.046,0.702s-0.146,0.282-0.352,0.197l-0.734-0.303
			c-0.206-0.085-0.216-0.245-0.022-0.354l0.688-0.393C20.294,30.846,20.463,30.914,20.476,31.107z"/>
	</g>
	<circle style="fill:#C0BBC9;" cx="22.726" cy="31.314" r="0.794"/>
	<path style="fill:#5063AC;" d="M49.517,1.714c0,0,3.391-0.692,6.414,0.553c3.024,1.247,4.664,2.585,4.322,3.267"/>
</g>
<g id="Layer_1">
</g>
</svg>
