<?xml version="1.0" encoding="iso-8859-1"?>
<!-- Generator: Adobe Illustrator 16.0.0, SVG Export Plug-In . SVG Version: 6.00 Build 0)  -->
<!DOCTYPE svg PUBLIC "-//W3C//DTD SVG 1.1//EN" "http://www.w3.org/Graphics/SVG/1.1/DTD/svg11.dtd">
<svg version="1.1" xmlns="http://www.w3.org/2000/svg" xmlns:xlink="http://www.w3.org/1999/xlink" x="0px" y="0px"
	 width="83.563px" height="49.629px" viewBox="0 0 83.563 49.629" style="enable-background:new 0 0 83.563 49.629;"
	 xml:space="preserve">
<g id="_x34_">
	<path style="fill:#A2A4A7;" d="M53.447,24.244c0,0,2.195-13.929,9.061-19.193c3.031-2.324,10.656-6.443,14.754-4.582
		s3.848,11.563,0.996,15.924c-2.852,4.361-14.833,14.843-14.833,14.843"/>
	<path style="fill:#F1F1F2;" d="M58.612,20.867c0,0,1.421-9.015,5.864-12.421c1.963-1.506,6.898-4.172,9.551-2.967
		s2.49,7.484,0.646,10.307c-1.848,2.824-9.604,9.609-9.604,9.609"/>
	<path style="fill:#A2A4A7;" d="M30.065,24.244c0,0-2.196-13.929-9.061-19.193C17.973,2.727,10.348-1.392,6.25,0.469
		S2.402,12.032,5.253,16.393c2.852,4.361,14.835,14.843,14.835,14.843"/>
	<path style="fill:#F1F1F2;" d="M24.9,20.867c0,0-1.422-9.015-5.865-12.421c-1.962-1.506-6.898-4.172-9.551-2.967
		s-2.49,7.484-0.645,10.307c1.846,2.824,9.603,9.609,9.603,9.609"/>
	<path style="fill:#F1F1F2;" d="M0,34.191c8.051,9.197,23.754,15.438,41.806,15.438c18.015,0,33.69-6.215,41.756-15.379
		c0,0-10.908-11.725-12.793-14.119C68.886,17.738,57.854,3.825,41.781,3.825c-16.071,0-27.104,13.914-28.989,16.306
		C10.908,22.525,0,34.25,0,34.25c8.066,9.164,23.741,15.379,41.756,15.379c18.052,0,33.755-6.24,41.806-15.438"/>
	<path style="fill:#A2A4A7;" d="M19.539,13.047l0.031,0.012c0,0,20.404-1.045,20.404,15.419l-0.221,1.129l0.838,2.148l3.042-3.277
		c0-16.464,20.404-15.419,20.404-15.419l0,0c-5.131-4.443-12.825-9.234-22.256-9.234C32.359,3.825,24.669,8.608,19.539,13.047z"/>
	<path style="fill:#A2A4A7;" d="M83.508,34.191c-0.811-0.873-10.93-11.762-12.738-14.061c-0.398-0.506-1.213-1.535-2.396-2.838
		c-2.723-0.111-19.044-0.246-19.044,12.533c0,0,2.406,12.521,23.702,12.521c0,0,0.008,0.006,0.021,0.018
		c4.229-2.291,7.799-5.037,10.51-8.115c0,0-0.01-0.01-0.027-0.029c0.01-0.01,0.018-0.02,0.027-0.029H83.508z"/>
	<path style="fill:#A2A4A7;" d="M10.915,42.348c21.297,0,23.703-12.521,23.703-12.521c0-13.943-19.429-12.512-19.429-12.512
		l-0.012-0.006c-1.178,1.295-1.987,2.316-2.385,2.822C10.983,22.43,0.865,33.318,0.054,34.191H0c0.009,0.01,0.018,0.02,0.026,0.029
		C0.01,34.24,0,34.25,0,34.25c2.76,3.135,6.411,5.926,10.742,8.24L10.915,42.348z"/>
	<ellipse style="fill:#231F20;" cx="28.003" cy="27.652" rx="2.712" ry="4.662"/>
	<ellipse style="fill:#231F20;" cx="41.756" cy="31.236" rx="5.442" ry="3.271"/>
	<path style="fill:#231F20;" d="M29.605,37.729l28.297-3.139c0,0,8.51-1.568-2.928,9.053C43.539,54.266,29.605,37.729,29.605,37.729
		z"/>
	<ellipse style="fill:#231F20;" cx="55.944" cy="27.652" rx="2.711" ry="4.662"/>
</g>
<g id="Layer_1">
</g>
</svg>
