<?xml version="1.0" encoding="iso-8859-1"?>
<!-- Generator: Adobe Illustrator 16.0.0, SVG Export Plug-In . SVG Version: 6.00 Build 0)  -->
<!DOCTYPE svg PUBLIC "-//W3C//DTD SVG 1.1//EN" "http://www.w3.org/Graphics/SVG/1.1/DTD/svg11.dtd">
<svg version="1.1" id="Layer_1" xmlns="http://www.w3.org/2000/svg" xmlns:xlink="http://www.w3.org/1999/xlink" x="0px" y="0px"
	 width="85.347px" height="115.251px" viewBox="-1.464 -31.327 85.347 115.251"
	 style="enable-background:new -1.464 -31.327 85.347 115.251;" xml:space="preserve">
<g>
	<path style="fill:#667432;" d="M25.1-16.222c0,0,5.926,2.019,7.237,9.977C33.651,1.714,21.869,5.157,21.869,5.157
		S20.089-13.706,25.1-16.222z"/>
	<path style="fill:#4E5C29;" d="M19.685,12.094c11.188-26.316-1.772-33.707-3.737-33.582c-1.965,0.126-12.225-3.379-3.294,34.342"/>
	<path style="fill:#717E35;" d="M16.276,12.848c0,0-9.959-20.516,0-23.844c7.113-2.375,15.571,23.964,14.428,24.706"/>
	<path style="fill:#688037;" d="M35.362,9.245c9.12-19.668-2.376-30.215-2.376-30.215s-13.664,6.174-3.317,31.733"/>
	<path style="fill:#667432;" d="M16.169,15.99c0,0-2.756-26.13-12.256-32.211c-9.501-6.077-5.891,26.531,6.745,31.081"/>
	<path style="fill:#908141;" d="M69.948,15.514c0,0,16.528-16.724,13.583-25.084C80.586-17.931,61.11,14.088,61.11,14.088"/>
	<path style="fill:#607D48;" d="M62.154-15.411c-2.043-11.021-7.977-11.925-7.977-11.925s-8.635,6.195-3.424,22.232"/>
	<path style="fill:#516E32;" d="M53.227-1.398c3.323-24.514,18.241-28.028,18.241-28.028s7.977,8.456-3.992,28.028L56.913,8.804"/>
	<path style="fill:#5D7752;" d="M48.377-5.104c5.609-20.903-4.095-26.224-4.095-26.224s-11.9,3.403-5.423,25.075"/>
	<path style="fill:#636A34;" d="M61.681,13.328c0,0,22.044-18.907,20.049-29.833c0,0-2.266-11.038-13.193,5.359
		c-10.926,16.398-13.315,24-13.315,24"/>
	<path style="fill:#616F39;" d="M50.24,11.508c-1.777-25.64-17.35-25.496-17.35-25.496s-8.643,13.126,11.502,25.88"/>
	<path style="fill:none;" d="M40.206-18.216c-2.661-5.891-10.537-6.652-10.537-6.652s-3.012,9.566,0.838,17.102"/>
	<path style="fill:#767C34;" d="M48.756,11.282c-8.643-5.744-2.852-21.612,1.429-21.612c4.274,0,13.87,3.701,8.551,21.612"/>
	<path style="fill:#818846;" d="M47.524,9.148c0,0-11.231-3.04-17.017-10.833c-5.786-7.789-7.212,2.376-5.597,4.751
		c1.613,2.376,2.855,8.076,13.97,9.027"/>
	<path style="fill:#49260F;" d="M7.428,15.336c0,0-1.426-3.801,0.476-4.751c1.898-0.949,33.824-7.029,65.747-0.191
		c0,0,2.852,2.09-0.854,7.033"/>
	<path style="fill:#F05B22;" d="M40.758,11.282c4.412,0-29.971-0.192-34.393,4.231c-1.855,1.854,3.988,57.766,7.79,62.331
		c3.799,4.56,15.771,6.079,26.603,6.079h0.782c10.831,0,22.8-1.52,26.602-6.079c3.803-4.564,9.645-60.477,7.789-62.331
		c-4.422-4.423-38.801-4.231-34.391-4.231"/>
</g>
</svg>
