<?xml version="1.0" encoding="iso-8859-1"?>
<!-- Generator: Adobe Illustrator 16.0.0, SVG Export Plug-In . SVG Version: 6.00 Build 0)  -->
<!DOCTYPE svg PUBLIC "-//W3C//DTD SVG 1.1//EN" "http://www.w3.org/Graphics/SVG/1.1/DTD/svg11.dtd">
<svg version="1.1" id="Layer_1" xmlns="http://www.w3.org/2000/svg" xmlns:xlink="http://www.w3.org/1999/xlink" x="0px" y="0px"
	 width="60.225px" height="56.058px" viewBox="-0.5 -0.769 60.225 56.058"
	 style="enable-background:new -0.5 -0.769 60.225 56.058;" xml:space="preserve">
<g id="_x32_">
	<path style="fill:#FBF393;stroke:#231F20;stroke-width:2;stroke-miterlimit:10;" d="M14.836,20.334c0,0-14.412,1.304-14.305-12.146
		l0.103,33.487C0.531,55.11,14.945,53.806,14.945,53.806"/>
	<polygon style="fill:#FBF393;stroke:#231F20;stroke-width:2;stroke-miterlimit:10;" points="58.607,0.771 14.84,20.342 
		14.947,53.84 58.723,37.157 	"/>
	<polygon style="fill:#FFFFFF;stroke:#231F20;stroke-width:2;stroke-miterlimit:10;" points="14.917,45.617 58.695,29.197 
		58.663,18.914 14.881,34.92 	"/>
	<path style="fill:#FFFFFF;stroke:#231F20;stroke-width:2;stroke-miterlimit:10;" d="M58.607,0.771l0.036,11.981
		c0,0-7.202-2.245-9.48,2.729l-0.002,0.513c0,0-7.19-2.247-9.476,2.727l-0.242,0.511c0,0-7.2-2.245-9.472,2.723l-0.346,0.521
		c0,0-7.203-2.246-9.479,2.729l-0.549,0.51c0,0-2.321-0.725-4.74-0.441l-0.02-4.929L58.607,0.771z"/>
	<path style="fill:#FBD8E7;stroke:#231F20;stroke-width:2;stroke-linejoin:round;stroke-miterlimit:1;" d="M58.607,0.771
		L0.531,8.187c0,0-1.383,12.176,14.309,12.154L58.607,0.771z"/>
	<path style="fill:#EC2224;stroke:#231F20;stroke-width:2;stroke-miterlimit:10;" d="M10.092,8.182
		c0.009,2.956,2.413,5.348,5.368,5.33c2.959-0.009,5.342-2.404,5.331-5.356c-0.009-2.955-2.408-5.347-5.364-5.342
		C12.471,2.82,10.08,5.23,10.092,8.182z"/>
</g>
<g id="Layer_1_1_">
</g>
</svg>
