<?xml version="1.0" encoding="iso-8859-1"?>
<!-- Generator: Adobe Illustrator 16.0.0, SVG Export Plug-In . SVG Version: 6.00 Build 0)  -->
<!DOCTYPE svg PUBLIC "-//W3C//DTD SVG 1.1//EN" "http://www.w3.org/Graphics/SVG/1.1/DTD/svg11.dtd">
<svg version="1.1" id="Layer_1" xmlns="http://www.w3.org/2000/svg" xmlns:xlink="http://www.w3.org/1999/xlink" x="0px" y="0px"
	 width="155.685px" height="113.184px" viewBox="0 0 155.685 113.184" style="enable-background:new 0 0 155.685 113.184;"
	 xml:space="preserve">
<g id="_x31_4">
	<path style="fill:#231F20;" d="M90.218,69.965c0,0,3.614,3.277,2.971,4.872c-0.647,1.603-3.466,2.969-3.466,2.969
		s-1.382-4.746-2.764-7.021"/>
	<path style="fill:#231F20;" d="M87.942,31.387c0,0,4.089,1.733,4.352,6.085c0,0,3.824,3.43,4.616,7.913
		c0,0,6.595,15.697-8.968,26.644c-15.563,10.941-28.358-5.804-28.358-5.804s-10.943-10.816,3.563-27.17c0,0-5.145-3.956-0.395-8.967
		c4.748-5.013,6.329-6.86,6.329-6.86s-9.291,2.507-8.934,0c0.36-2.506,12.635-12.265,15.002-8.969c0,0-7.533,2.713-8.97,4.881
		c0,0-2.109,2.638,2.505,1.582c0,0,7.015-2.266,11.542-0.609c4.525,1.655,4.869,3.437,4.869,3.437l-1.803,2.547
		C83.292,26.099,81.933,28.101,87.942,31.387z"/>
	<circle style="fill:#F38D9B;" cx="77.011" cy="50.676" r="9.501"/>
	<path style="fill:#FFFFFF;" d="M93.217,46.969c-0.662-4.748-5.783-8.733-5.783-8.733s-1.197-0.59-3.316-3.136
		c-1.963-2.357-5.279-3.563-5.279-3.563c-6.063-1.583-13.98,9.761-13.98,9.761s-7.516,13.056-3.559,17.411
		c3.955,4.351,11.21,3.954,11.21,3.954l-2.638,3.167c-1.716,2.373-0.261,1.979,0.924,2.769c1.188,0.79,4.877-5.672,4.877-5.672
		s-2.372,5.805-1.184,6.725c1.184,0.925,5.803-0.393,5.803-1.482c0-1.083-1.453-5.506-1.453-5.506l2.64,5.406
		c0.795,0.397,3.56-0.396,2.899-1.847c-0.657-1.451-0.921-2.902-0.921-2.902s0.661,1.32,6.069-3.295
		C95.338,55.062,93.875,51.718,93.217,46.969z M75.147,49.212c0,0-0.132,7.319-3.561,8.672c-3.431,1.351-7.65-1.946-7.123-6.036
		c0.527-4.087,1.716-6.46,3.692-7.911c1.979-1.452,3.959-0.996,3.959-0.996S75.28,44.331,75.147,49.212z M86.359,57.522
		c-1.981,0.526-4.086,1.056-5.539-2.903c-1.45-3.955-1.189-7.649,0-9.496c1.188-1.846,3.611-2.397,4.747-2.109
		c0,0,5.806,0.79,5.672,6.593C91.107,55.409,88.334,56.992,86.359,57.522z"/>
	<path style="fill:#231F20;" d="M130.675,48.46l-82.56,58.917c0,0-1.582,2.968,0.99,3.562c2.571,0.595,1.783-0.793,3.366-1.783
		c1.58-0.986,17.974-18.096,78.204-57.531l16.811-5.547c0,0-3.758,0.754-7.323-1.415C136.607,42.494,130.675,48.46,130.675,48.46z"
		/>
	<path style="fill:#231F20;" d="M69.558,74.042c0,0-2.784,4.358,2.258,8.812c0,0,8.608-0.892,9.99,2.172
		c0,0,4.747,7.325-0.594,7.223c-5.339-0.1-7.613-2.77-7.613-2.77s-5.739,1.483-7.423-1.285c-1.678-2.768-3.159-7.798,0-16.017"/>
	<path style="fill:#231F20;" d="M90.375,73.888c2.216,0.061,6.029,5.915,4.193,7.538c-1.831,1.627-2.874,1.607-2.874,1.607
		s-0.311,3.141-2.918,2.546c-2.61-0.596-5.615-7.576-5.518-8.359c0.102-0.781,2.521-2.431,4.497-2.521
		C87.755,74.7,88.605,73.842,90.375,73.888z"/>
	<path style="fill:#231F20;" d="M141.106,45.168c0,0-43.964-50.924-80.959-42.021c0,0,21.855-1.208,63.402,39.742
		c0,0,3.562-2.349,9.102,1.299c5.54,3.646,5.339,0.98,5.339,0.98"/>
</g>
<g id="Layer_1_1_">
</g>
</svg>
