<?xml version="1.0" encoding="iso-8859-1"?>
<!-- Generator: Adobe Illustrator 16.0.0, SVG Export Plug-In . SVG Version: 6.00 Build 0)  -->
<!DOCTYPE svg PUBLIC "-//W3C//DTD SVG 1.1//EN" "http://www.w3.org/Graphics/SVG/1.1/DTD/svg11.dtd">
<svg version="1.1" id="Layer_1" xmlns="http://www.w3.org/2000/svg" xmlns:xlink="http://www.w3.org/1999/xlink" x="0px" y="0px"
	 width="66.387px" height="104.487px" viewBox="0 0 66.387 104.487" style="enable-background:new 0 0 66.387 104.487;"
	 xml:space="preserve">
<g id="_x31_1">
	<polygon style="fill:#DBC44C;" points="34.368,9.951 16.042,28.278 6.526,56.827 16.745,84.97 29.787,94.536 49.875,87.841 
		59.86,61.53 54.457,33.213 44.863,16.647 	"/>
	<line style="fill:none;" x1="16.042" y1="28.278" x2="49.875" y2="87.841"/>
	<polygon style="fill:#FDE839;" points="29.979,52.812 44.863,16.647 34.368,9.951 16.042,28.278 	"/>
	<polygon style="fill:#DBE364;" points="49.875,87.841 59.86,61.53 54.457,33.213 44.863,16.647 29.979,52.812 	"/>
	<path style="fill:#C12026;" d="M30.896,70.317c0,0-5.653-3.938-7.089-5.152c-1.326-1.13-6.725-7.874,0-17.109
		c0,0,0.075,7.731,3.078,11.132C29.895,62.585,32.255,66.237,30.896,70.317z"/>
	<path style="fill:#C12026;" d="M32.754,70.744c0,0,1.86-6.799-2.217-10.59c-4.08-3.795-11.092-19.469,5.081-26.41
		c0,0-3.863,5.224,4.863,14.311C49.216,57.148,47.854,65.592,32.754,70.744z"/>
	<polygon style="fill:none;stroke:#231F20;stroke-width:1.4098;stroke-miterlimit:10;" points="34.368,9.951 16.042,28.278 
		6.526,56.827 16.745,84.97 29.787,94.536 49.875,87.841 59.86,61.53 54.457,33.213 44.863,16.647 	"/>
</g>
<g id="Layer_1_1_">
</g>
</svg>
