<?xml version="1.0" encoding="iso-8859-1"?>
<!-- Generator: Adobe Illustrator 16.0.0, SVG Export Plug-In . SVG Version: 6.00 Build 0)  -->
<!DOCTYPE svg PUBLIC "-//W3C//DTD SVG 1.1//EN" "http://www.w3.org/Graphics/SVG/1.1/DTD/svg11.dtd">
<svg version="1.1" id="Layer_1" xmlns="http://www.w3.org/2000/svg" xmlns:xlink="http://www.w3.org/1999/xlink" x="0px" y="0px"
	 width="216.122px" height="117.803px" viewBox="0 0 216.122 117.803" style="enable-background:new 0 0 216.122 117.803;"
	 xml:space="preserve">
<g id="_x31_5">
	<path style="fill:#518B94;" d="M107.241,91.768c0,0-7.7,5.773-9.635,4.051l-0.048,0.066c-0.584-0.422-3.76-2.462-4.01-5.294
		c0,0-2.662,2.039-7.433,1.621c0,0,1.521,5.693-0.408,7.21c0,0,6.512-1.651,10.158,0c0,0,8.936-3.271,12.197-5.718L107.241,91.768z"
		/>
	<path style="fill:#70BED5;" d="M107.491,91.118c0,0-7.95,6.424-9.885,4.701l-0.048,0.066c-0.584-0.422-3.76-2.462-4.01-5.294
		c0,0-2.662,2.039-7.433,1.621c0,0,1.521,5.693-0.408,7.21c0,0,6.512-1.651,10.158,0c0,0,10.053-3.59,13.317-6.038L107.491,91.118z"
		/>
	<path style="fill:#518B94;" d="M98.625,96.176c0,0,0.006,0,0.012,0c-0.424-0.022-0.778-0.132-1.03-0.354l-0.048,0.064
		c-0.584-0.421-3.76-2.461-4.01-5.293c0,0-2.662,2.04-7.433,1.62C86.114,92.214,91.788,96.329,98.625,96.176z"/>
	<path style="fill:#D9D6CD;" d="M133.596,72.889c0,0-7.664-5.021-4.04-12.411c2.427-4.951,5.854-12.339,3.747-19.401
		c0.901,0.527,1.516,0.973,1.516,0.973c-1.035-2.739-2.064-4.001-3.123-4.567c-0.161-0.267-0.329-0.523-0.515-0.785
		c1.244,0.421,2.194,0.776,2.194,0.776c-1.692-2.012-3.459-3.135-4.798-3.761c-0.208-0.194-0.426-0.392-0.649-0.585
		c1.826,0.428,3.297,0.955,3.297,0.955c-3.034-3.073-8.11-3.803-8.11-3.803v0.004c-5.028-0.877-9.739,5.516-9.739,5.516
		s5.856,4.319,5.021,10.456c-0.838,6.137-7.81,13.246-7.391,16.871c0.419,3.624-4.045,25.514-4.045,25.514l0.139,2.924
		c0,0,3.211,4.187-1.392,7.536c-4.602,3.343-5.438,4.461-5.438,4.461l1.952,3.621c0,0,11.689,2.648,24.318-5.715
		C139.173,93.104,133.596,72.889,133.596,72.889z"/>
	<path style="fill:#D9D6CD;" d="M133.596,72.889c0,0-7.664-5.021-4.04-12.411c2.427-4.951,5.854-12.339,3.747-19.401
		c0.901,0.527,1.516,0.973,1.516,0.973c-1.035-2.739-2.064-4.001-3.123-4.567c-0.161-0.267-0.329-0.523-0.515-0.785
		c1.244,0.421,2.194,0.776,2.194,0.776c-1.692-2.012-3.459-3.135-4.798-3.761c-0.208-0.194-0.426-0.392-0.649-0.585
		c1.826,0.428,3.297,0.955,3.297,0.955c-3.034-3.073-8.11-3.803-8.11-3.803v0.004c-5.028-0.877-9.739,5.516-9.739,5.516
		s5.856,4.319,5.021,10.456c-0.838,6.137-7.81,13.246-7.391,16.871c0.419,3.624-4.045,25.514-4.045,25.514l0.139,2.924
		c0,0,3.211,4.187-1.392,7.536c-4.602,3.343-5.438,4.461-5.438,4.461l1.952,3.621c0,0,11.689,2.648,24.318-5.715
		C139.173,93.104,133.596,72.889,133.596,72.889z"/>
	<path style="fill:#518B94;" d="M105.58,51.635c0,0,1.802-0.078,3.688,0.342c0.989,0.219,4.244-2.997,7.041-4.884
		c2.514-1.691,4.627-1.984,5.089-3.206c0.978-2.578,0.856-4.645,0.787-6.318"/>
	<path style="fill:#292219;" d="M100.274,103.078c-1.236,0.461-12.965,1.894-19.24-1.453c0,0,1.252,5.16,5.3,5.863
		c4.043,0.689-7.669,2.088-7.669,2.088s14.812,4.449,23.919-2.316c1.181-0.878,3.279-8.163,2.252-7.513
		C103.809,100.394,101.509,102.601,100.274,103.078z"/>
	<path style="fill:#70BED5;" d="M117.076,44.724c0.118-0.241-12.479,8.016-12.479,8.016s-1.255-1.811,0.696-4.81
		c1.951-2.997,8.366-7.598,8.504-9.063c0.142-1.462-0.419-3.065-0.419-3.065s1.675-0.142,2.581-0.49
		c0.906-0.348,2.719-2.018,4.393-0.767c1.671,1.257,2.651,3.766,1.117,6.136C119.937,43.051,117.076,44.724,117.076,44.724z"/>
	<path style="fill:#292219;" d="M195.619,77.708c0,0,0.352-2.992-0.158-3.063c-0.81-0.113-3.28,4.76-4.302,8.016
		c0,0-0.488-3.698-1.537-2.576c0,0-1.74,3.753-2.803,6.47c0.251-1.67,0.306-3.237-0.494-2.851c-1.166,0.561-3.098,4.772-4.073,7.056
		c-6.016,2.628-10.121,2.067-10.121,2.067c-19.941-3.205-34.581-19.937-34.581-19.937c-5.033-2.967-9.533-5.097-13.174-6.589
		c-0.003-0.003-0.003-0.003-0.003-0.003c-5.805-3.931-6.91-9.446-6.91-9.455c-1.346,2.244-2.563,4.338-3.012,6.016
		C95.501,52.693,83.22,25.052,82.545,23.447c-0.68-1.621-2.404-5.7-6.951-7.215c-4.553-1.519-12.186-9.414-12.186-9.414
		c-0.942,3.921,3.66,9.147,3.66,9.147c-0.63-0.313-3.973,0.944-19.868,0.106c-15.897-0.837-34.72,3.552-34.72,3.552
		s2.717,2.615,11.189,3.032c0,0-3.451,1.361-5.54,2.93c0,0,2.718,3.764,12.546,3.449c0,0-2.925,1.776-3.66,3.031
		c0,0,5.124,3.765,18.092,0.732c0,0-7.111,7.113-7.736,8.367c0,0,8.364,3.871,21.015-5.124c0,0-4.6,7.632-4.811,8.681
		c0,0,5.125,2.928,9.726,1.985c0,0-1.584,3.062-2.633,4.841c0,0,2.946,4.049,9.224,4.258c0,0-0.63,5.332,3.347,6.482
		c0,0-0.386,4.218,3.729,6.833c0,0-0.488,2.508,4.53,4.042c0,0,1.532,4.184,5.021,4.043c0,0,1.532,4.327,3.346,4.744
		c0,0,1.411,2.68,3.083,2.68c0,0,1.154,2.636,5.43,2.574l0.656-0.445c0,0,4.111,3.487,7.18,3.204v-1.598
		c0,0,3.172,3.064,4.842,3.201c0,0,21.503,6.886,15.648,12.116c0,0,2.673-0.403,6.358-4.308c0,0-0.321,1.502,0.201,2.44
		c0.521,0.943,5.956,3.034,9.101,1.465c0,0,4.18,1.675,11.082,1.675c0,0,17.149,0.28,27.188-5.997
		c10.038-6.275,20.354-18.54,23.005-29.139C203.639,69.824,198.201,73.105,195.619,77.708z"/>
	<path style="fill:#292219;" d="M134.344,76.657c-0.342-2.304-0.748-3.768-0.748-3.768s-2.313-2.141-2.94-2.824
		c-3.553-0.322-13.105-6.179-13.105-6.179l-3.4,8.926l15.258,4.873L134.344,76.657z"/>
</g>
<g id="Layer_1_1_">
</g>
</svg>
