<?xml version="1.0" encoding="iso-8859-1"?>
<!-- Generator: Adobe Illustrator 16.0.0, SVG Export Plug-In . SVG Version: 6.00 Build 0)  -->
<!DOCTYPE svg PUBLIC "-//W3C//DTD SVG 1.1//EN" "http://www.w3.org/Graphics/SVG/1.1/DTD/svg11.dtd">
<svg version="1.1" xmlns="http://www.w3.org/2000/svg" xmlns:xlink="http://www.w3.org/1999/xlink" x="0px" y="0px"
	 width="69.703px" height="69.604px" viewBox="0 0 69.703 69.604" style="enable-background:new 0 0 69.703 69.604;"
	 xml:space="preserve">
<g id="_x31_3">
	
		<line style="fill:#FFFFFF;stroke:#000000;stroke-width:0.6134;stroke-miterlimit:10;" x1="53.983" y1="54.006" x2="68.072" y2="56.508"/>
	
		<line style="fill:#FFFFFF;stroke:#000000;stroke-width:0.6134;stroke-miterlimit:10;" x1="54.105" y1="53.887" x2="56.607" y2="67.974"/>
	
		<line style="fill:#FFFFFF;stroke:#000000;stroke-width:0.6134;stroke-miterlimit:10;" x1="43.241" y1="14.5" x2="36.887" y2="1.629"/>
	
		<line style="fill:#FFFFFF;stroke:#000000;stroke-width:0.6134;stroke-miterlimit:10;" x1="43.074" y1="14.471" x2="53.021" y2="4.376"/>
	
		<line style="fill:#FFFFFF;stroke:#000000;stroke-width:0.6134;stroke-miterlimit:10;" x1="14.5" y1="43.243" x2="1.63" y2="36.886"/>
	
		<line style="fill:#FFFFFF;stroke:#000000;stroke-width:0.6134;stroke-miterlimit:10;" x1="14.472" y1="43.074" x2="4.376" y2="53.024"/>
	<polygon style="fill:none;stroke:#000000;stroke-width:0.6134;stroke-miterlimit:10;" points="59.906,31.347 53.983,54.006 
		31.324,59.929 14.586,43.189 20.504,20.528 43.166,14.607 	"/>
	<path style="fill:#73C05B;" d="M40.373,17.368c-1.556-1.555-1.572-4.06-0.037-5.594c1.533-1.531,4.038-1.515,5.593,0.04
		c1.556,1.556,1.575,4.06,0.038,5.594C44.436,18.942,41.931,18.926,40.373,17.368z"/>
	<path style="fill:#73C05B;" d="M11.793,45.95c-1.555-1.555-1.574-4.061-0.04-5.594c1.534-1.534,4.038-1.516,5.594,0.039
		c1.555,1.559,1.574,4.061,0.04,5.595S13.349,47.506,11.793,45.95z"/>
	<path style="fill:#73C05B;" d="M51.206,56.782c-1.556-1.555-1.572-4.059-0.04-5.594c1.534-1.534,4.041-1.515,5.597,0.041
		c1.555,1.555,1.571,4.059,0.037,5.593C55.269,58.354,52.762,58.338,51.206,56.782z"/>
	
		<ellipse transform="matrix(-0.7071 0.7071 -0.7071 -0.7071 49.5235 20.5417)" style="fill:#606060;" cx="20.507" cy="20.528" rx="2.974" ry="3.05"/>
	<path style="fill:#606060;" d="M57.646,33.605c-1.193-1.191-1.217-3.099-0.054-4.262c1.16-1.161,3.065-1.138,4.257,0.053
		c1.191,1.192,1.217,3.1,0.057,4.261C60.744,34.82,58.837,34.795,57.646,33.605z"/>
	
		<ellipse transform="matrix(-0.7069 0.7073 -0.7073 -0.7069 96.0064 79.755)" style="fill:#606060;" cx="31.48" cy="59.768" rx="2.976" ry="3.051"/>
	<path style="fill:#606060;" d="M51.88,5.52c-0.642-0.641-0.65-1.672-0.017-2.304c0.632-0.632,1.661-0.625,2.306,0.017
		c0.639,0.641,0.647,1.672,0.014,2.305C53.551,6.169,52.522,6.161,51.88,5.52z"/>
	
		<ellipse transform="matrix(-0.707 0.7072 -0.7072 -0.707 64.119 -23.3032)" style="fill:#606060;" cx="36.886" cy="1.63" rx="1.618" ry="1.641"/>
	<path style="fill:#606060;" d="M0.486,38.03c-0.641-0.642-0.648-1.674-0.017-2.305c0.632-0.629,1.664-0.624,2.305,0.021
		c0.639,0.638,0.646,1.671,0.017,2.301C2.159,38.679,1.127,38.671,0.486,38.03z"/>
	<path style="fill:#606060;" d="M3.232,54.165c-0.642-0.639-0.648-1.669-0.016-2.301c0.632-0.633,1.663-0.626,2.304,0.016
		c0.641,0.641,0.648,1.67,0.017,2.302C4.905,54.813,3.874,54.81,3.232,54.165z"/>
	<path style="fill:#606060;" d="M55.46,69.119c-0.639-0.641-0.646-1.673-0.013-2.305c0.629-0.632,1.663-0.625,2.302,0.015
		c0.642,0.644,0.648,1.672,0.019,2.305C57.136,69.766,56.103,69.761,55.46,69.119z"/>
	
		<ellipse transform="matrix(-0.7071 0.7071 -0.7071 -0.7071 156.1625 48.33)" style="fill:#606060;" cx="68.072" cy="56.507" rx="1.618" ry="1.641"/>
</g>
<g id="Layer_1">
</g>
</svg>
