<?xml version="1.0" encoding="utf-8"?>
<!-- Generator: Adobe Illustrator 16.0.0, SVG Export Plug-In . SVG Version: 6.00 Build 0)  -->
<!DOCTYPE svg PUBLIC "-//W3C//DTD SVG 1.1//EN" "http://www.w3.org/Graphics/SVG/1.1/DTD/svg11.dtd">
<svg version="1.1" id="Layer_1" xmlns="http://www.w3.org/2000/svg" xmlns:xlink="http://www.w3.org/1999/xlink" x="0px" y="0px"
	 width="418.542px" height="45.123px" viewBox="0 0 418.542 45.123" enable-background="new 0 0 418.542 45.123"
	 xml:space="preserve">
<g>
	<path d="M31.632,1.899v28.162c0,10.217-8.448,14.08-16.242,14.08C6.68,44.141,0,39.229,0,29.995c0-0.328,0.065-1.769,1.572-1.769
		h6.942c1.506,0,1.637,1.048,1.637,1.375c0.196,3.864,2.292,5.437,5.239,5.437c4.322,0,5.96-2.358,5.96-6.419V9.234H9.889
		c-1.572,0-1.899-0.72-1.899-1.899V1.899C7.99,0.72,8.317,0,9.889,0h19.844C31.239,0,31.632,0.72,31.632,1.899z"/>
	<path d="M74.985,2.947v28.031c0,10.281-9.562,14.146-17.355,14.146s-17.29-3.864-17.29-14.146V2.947
		c0-1.506,0.721-1.899,1.899-1.899h6.483c1.179,0,1.899,0.393,1.899,1.899v26.589c0,4.126,2.685,6.483,7.007,6.483
		s7.073-2.357,7.073-6.483V2.947c0-1.506,0.72-1.899,1.899-1.899h6.484C74.265,1.048,74.985,1.44,74.985,2.947z"/>
	<path d="M117.488,31.37c0,9.3-7.335,13.753-17.42,13.753c-8.187,0-17.617-4.715-17.617-13.884c0-1.507,0.393-1.834,1.899-1.834
		h6.353c1.506,0,2.227,0.196,2.358,1.834c0.065,0.852,0.393,1.703,1.244,2.685c1.31,1.572,3.995,2.162,6.418,2.162
		c3.537,0,6.418-0.786,6.418-4.454c0-3.667-5.829-3.732-11.395-5.501C89.13,24.035,83.04,21.416,83.04,13.098
		c0-8.514,7.728-12.706,15.915-13.033c8.317,0,17.42,3.798,17.42,12.443c0,1.572-0.393,1.833-1.899,1.833h-6.418
		c-1.244,0-1.44-0.917-1.768-1.768c-0.262-0.655-0.589-1.179-1.375-1.965c-1.244-1.179-3.602-1.768-5.566-1.768
		c-2.161,0-5.763,0.851-5.763,3.798c0,3.995,9.627,5.436,12.247,6.483C110.546,20.564,117.488,22.463,117.488,31.37z"/>
	<path d="M156.193,2.947v5.436c0,1.179-0.393,1.899-1.899,1.899h-10.02v31.959c0,1.507-0.721,1.899-1.899,1.899h-6.483
		c-1.179,0-1.899-0.393-1.899-1.899V10.282h-10.085c-1.506,0-1.899-0.72-1.899-1.899V2.947c0-1.179,0.393-1.899,1.899-1.899h30.388
		C155.8,1.048,156.193,1.768,156.193,2.947z"/>
	<path d="M183.371,37.067v5.174c0,1.18-0.393,1.899-1.899,1.899h-18.534c-1.506,0-1.899-0.72-1.899-1.899v-5.174
		c0-1.179,0.393-1.898,1.899-1.898h4.125V10.151h-3.995c-1.506,0-1.899-0.72-1.899-1.899V2.947c0-1.179,0.393-1.899,1.899-1.899
		h18.207c1.506,0,1.899,0.72,1.899,1.899v5.305c0,1.179-0.393,1.899-1.899,1.899h-3.93v25.018h4.126
		C182.978,35.169,183.371,35.889,183.371,37.067z"/>
	<path d="M226.79,2.947v39.294c0,1.18-0.393,1.899-1.899,1.899h-5.96c-1.637,0-2.096-0.917-2.946-2.227L202.1,19.451v22.791
		c0,1.507-0.72,1.899-1.899,1.899h-6.483c-1.179,0-1.899-0.393-1.899-1.899V2.947c0-1.179,0.393-1.899,1.899-1.899h6.156
		c1.637,0,2.096,0.917,2.947,2.227l13.884,22.398V2.947c0-1.506,0.721-1.899,1.899-1.899h6.287
		C226.069,1.048,226.79,1.44,226.79,2.947z"/>
	<path d="M290.772,2.881l-14.735,15.98l14.081,23.184c0.523,0.852,0.262,2.096-0.982,2.096h-7.99c-1.571,0-2.423-0.72-3.274-2.096
		c0,0-5.828-9.823-9.365-15.718l-4.061,4.257v11.657c0,1.507-0.72,1.899-1.833,1.899h-6.484c-1.244,0-1.898-0.393-1.898-1.899V2.947
		c0-1.506,0.654-1.899,1.898-1.899h6.484c1.113,0,1.833,0.393,1.833,1.899v14.604L278.001,2.62c1.311-1.441,1.769-1.572,3.274-1.572
		h8.842C291.362,1.048,291.362,2.292,290.772,2.881z"/>
	<path d="M333.013,44.141h-6.877c-1.44,0-1.964-0.393-2.488-1.965l-1.834-5.174h-16.045l-1.834,5.174
		c-0.523,1.572-1.048,1.965-2.488,1.965h-6.877c-1.44,0-1.44-1.048-1.113-1.834l14.539-39.229c0.524-1.375,1.244-2.03,2.686-2.03
		h6.287c1.44,0,2.096,0.655,2.685,2.03l14.474,39.229C334.454,43.093,334.454,44.141,333.013,44.141z M318.736,27.834l-4.911-14.474
		l-4.912,14.474H318.736z"/>
	<path d="M374.926,2.947v39.294c0,1.18-0.393,1.899-1.899,1.899h-5.96c-1.637,0-2.096-0.917-2.946-2.227l-13.885-22.463v22.791
		c0,1.507-0.72,1.899-1.898,1.899h-6.484c-1.179,0-1.898-0.393-1.898-1.899V2.947c0-1.179,0.393-1.899,1.898-1.899h6.156
		c1.638,0,2.096,0.917,2.947,2.227l13.884,22.398V2.947c0-1.506,0.721-1.899,1.899-1.899h6.287
		C374.206,1.048,374.926,1.44,374.926,2.947z"/>
	<path d="M418.542,22.005v9.496c-0.59,9.431-10.151,13.622-17.617,13.622c-7.728,0-17.617-3.93-17.617-14.211V14.801
		c0-10.348,9.89-14.735,17.617-14.735c8.187,0,17.617,4.715,17.617,13.491c0,1.572-0.393,1.833-1.899,1.833h-6.353
		c-1.834,0-1.571-1.31-1.899-2.227c-0.72-2.03-3.078-3.995-7.466-3.995c-4.322,0-7.204,2.882-7.204,7.073v13.164
		c0,4.191,2.882,6.614,7.204,6.614c4.257,0,7.27-1.964,7.27-7.007h-5.894c-1.507,0-1.899-0.721-1.899-1.899v-5.108
		c0-1.179,0.393-1.899,1.899-1.899h14.342C418.15,20.105,418.542,20.826,418.542,22.005z"/>
</g>
</svg>
